<?xml version="1.0" encoding="UTF-8" standalone="no"?>
<!-- Created with Inkscape (http://www.inkscape.org/) -->

<svg
   width="77.787498mm"
   height="13.993653mm"
   viewBox="0 0 77.787498 13.993653"
   version="1.1"
   id="svg2614"
   inkscape:version="1.2.2 (b0a8486541, 2022-12-01)"
   sodipodi:docname="marca_cfc.svg"
   xmlns:inkscape="http://www.inkscape.org/namespaces/inkscape"
   xmlns:sodipodi="http://sodipodi.sourceforge.net/DTD/sodipodi-0.dtd"
   xmlns:xlink="http://www.w3.org/1999/xlink"
   xmlns="http://www.w3.org/2000/svg"
   xmlns:svg="http://www.w3.org/2000/svg">
  <sodipodi:namedview
     id="namedview2616"
     pagecolor="#ffffff"
     bordercolor="#000000"
     borderopacity="0.25"
     inkscape:showpageshadow="2"
     inkscape:pageopacity="0.0"
     inkscape:pagecheckerboard="0"
     inkscape:deskcolor="#d1d1d1"
     inkscape:document-units="mm"
     showgrid="false"
     inkscape:zoom="4.2532751"
     inkscape:cx="124.25719"
     inkscape:cy="59.483574"
     inkscape:window-width="2560"
     inkscape:window-height="1412"
     inkscape:window-x="0"
     inkscape:window-y="0"
     inkscape:window-maximized="1"
     inkscape:current-layer="layer1" />
  <defs
     id="defs2611">
    <linearGradient
       inkscape:collect="always"
       xlink:href="#linearGradient11222"
       id="linearGradient5367"
       gradientUnits="userSpaceOnUse"
       gradientTransform="matrix(1,0,0,1.8034234,331.22013,36.38931)"
       x1="104.9187"
       y1="98.10434"
       x2="104.9187"
       y2="211.8784" />
    <linearGradient
       id="linearGradient11222"
       inkscape:collect="always">
      <stop
         id="stop11218"
         offset="0"
         style="stop-color:#204a87;stop-opacity:1" />
      <stop
         style="stop-color:#a40000;stop-opacity:1"
         offset="0.51115489"
         id="stop49152" />
      <stop
         id="stop11220"
         offset="1"
         style="stop-color:#a40000;stop-opacity:1" />
    </linearGradient>
  </defs>
  <g
     inkscape:label="Camada 1"
     inkscape:groupmode="layer"
     id="layer1"
     transform="translate(-89.900084,-108.77687)">
    <g
       id="g5037"
       transform="matrix(0.24074534,0,0,0.24074534,56.41095,74.36772)">
      <g
         aria-label="Curso de Formação Continuada 
em Enfrentamento ao Racismo 
e a Intolerância Religiosa"
         id="text3493"
         style="font-size:16.4617px;line-height:1.25;font-family:'Lobster 1.4';-inkscape-font-specification:'Lobster 1.4, ';stroke-width:0.41154">
        <path
           d="m 213.9172,145.39926 v 1.71208 q -0.81987,-0.7636 -1.75227,-1.14139 -0.92437,-0.37778 -1.9693,-0.37778 -2.05771,0 -3.15087,1.26196 -1.09316,1.25391 -1.09316,3.63315 0,2.37119 1.09316,3.63314 1.09316,1.25392 3.15087,1.25392 1.04493,0 1.9693,-0.37778 0.9324,-0.37778 1.75227,-1.14139 v 1.69601 q -0.85202,0.57873 -1.80854,0.86809 -0.94848,0.28937 -2.00948,0.28937 -2.72487,0 -4.29226,-1.66385 -1.5674,-1.67189 -1.5674,-4.55751 0,-2.89366 1.5674,-4.55752 1.56739,-1.67189 4.29226,-1.67189 1.07708,0 2.02556,0.28937 0.95651,0.28133 1.79246,0.85202 z"
           style="font-family:Oswald;-inkscape-font-specification:Oswald"
           id="path3039" />
        <path
           d="m 216.20801,152.92277 v -5.44972 h 1.47898 v 5.39346 q 0,1.27803 0.49835,1.92106 0.49836,0.635 1.49506,0.635 1.19765,0 1.88892,-0.7636 0.6993,-0.76361 0.6993,-2.08183 v -5.10409 h 1.47898 v 9.00249 h -1.47898 v -1.38253 q -0.53854,0.81987 -1.25392,1.22177 -0.70734,0.39386 -1.64778,0.39386 -1.55132,0 -2.35512,-0.96455 -0.80379,-0.96456 -0.80379,-2.82132 z m 3.72157,-5.66675 z"
           style="font-family:Oswald;-inkscape-font-specification:Oswald"
           id="path3041" />
        <path
           d="m 232.0106,148.85557 q -0.24918,-0.14468 -0.54658,-0.20898 -0.28937,-0.0723 -0.64304,-0.0723 -1.25391,0 -1.9291,0.81987 -0.66715,0.81183 -0.66715,2.33904 v 4.74238 h -1.48702 v -9.00249 h 1.48702 v 1.3986 q 0.4662,-0.81987 1.21373,-1.21373 0.74753,-0.4019 1.81657,-0.4019 0.15272,0 0.3376,0.0241 0.18487,0.0161 0.40993,0.0563 z"
           style="font-family:Oswald;-inkscape-font-specification:Oswald"
           id="path3043" />
        <path
           d="m 239.30101,147.7383 v 1.3986 q -0.62696,-0.32152 -1.30214,-0.48228 -0.67519,-0.16075 -1.39861,-0.16075 -1.10119,0 -1.65581,0.33759 -0.54658,0.33759 -0.54658,1.01278 0,0.51443 0.39386,0.81183 0.39386,0.28937 1.58347,0.55462 l 0.50639,0.11253 q 1.57544,0.33759 2.23455,0.95652 0.66715,0.61088 0.66715,1.71208 0,1.25392 -0.99671,1.98537 -0.98866,0.73145 -2.72486,0.73145 -0.72341,0 -1.51113,-0.14468 -0.77968,-0.13665 -1.64778,-0.41798 v -1.5272 q 0.81987,0.42601 1.61563,0.64303 0.79575,0.20899 1.57543,0.20899 1.04494,0 1.60759,-0.35367 0.56266,-0.36171 0.56266,-1.01278 0,-0.60285 -0.40994,-0.92437 -0.40189,-0.32151 -1.77638,-0.61892 l -0.51443,-0.12057 q -1.37449,-0.28936 -1.98537,-0.88417 -0.61088,-0.60284 -0.61088,-1.64778 0,-1.26999 0.90025,-1.96125 0.90024,-0.69127 2.55606,-0.69127 0.81987,0 1.54328,0.12057 0.72342,0.12057 1.3343,0.36171 z"
           style="font-family:Oswald;-inkscape-font-specification:Oswald"
           id="path3045" />
        <path
           d="m 245.62687,148.50994 q -1.18961,0 -1.88088,0.9324 -0.69126,0.92437 -0.69126,2.53999 0,1.61563 0.68322,2.54803 0.69127,0.92436 1.88892,0.92436 1.18158,0 1.87284,-0.9324 0.69126,-0.9324 0.69126,-2.53999 0,-1.59955 -0.69126,-2.53195 -0.69126,-0.94044 -1.87284,-0.94044 z m 0,-1.25392 q 1.92911,0 3.0303,1.25392 1.1012,1.25392 1.1012,3.47239 0,2.21044 -1.1012,3.47239 -1.10119,1.25392 -3.0303,1.25392 -1.93714,0 -3.03834,-1.25392 -1.09316,-1.26195 -1.09316,-3.47239 0,-2.21847 1.09316,-3.47239 1.1012,-1.25392 3.03834,-1.25392 z"
           style="font-family:Oswald;-inkscape-font-specification:Oswald"
           id="path3047" />
        <path
           d="m 263.3666,148.8395 v -4.87099 h 1.47898 v 12.50703 h -1.47898 v -1.35037 q -0.4662,0.80379 -1.18157,1.19765 -0.70734,0.38582 -1.70405,0.38582 -1.6317,0 -2.66056,-1.30215 -1.02081,-1.30214 -1.02081,-3.42416 0,-2.12201 1.02081,-3.42416 1.02886,-1.30215 2.66056,-1.30215 0.99671,0 1.70405,0.39386 0.71537,0.38582 1.18157,1.18962 z m -5.03979,3.14283 q 0,1.6317 0.66715,2.5641 0.67519,0.92437 1.84873,0.92437 1.17354,0 1.84873,-0.92437 0.67518,-0.9324 0.67518,-2.5641 0,-1.6317 -0.67518,-2.55606 -0.67519,-0.9324 -1.84873,-0.9324 -1.17354,0 -1.84873,0.9324 -0.66715,0.92436 -0.66715,2.55606 z"
           style="font-family:Oswald;-inkscape-font-specification:Oswald"
           id="path3049" />
        <path
           d="m 275.59231,151.60455 v 0.72341 h -6.8001 q 0.0965,1.52721 0.91633,2.33101 0.82791,0.79575 2.29885,0.79575 0.85202,0 1.64778,-0.20898 0.80379,-0.20899 1.59151,-0.62696 v 1.3986 q -0.79576,0.33759 -1.6317,0.51443 -0.83595,0.17683 -1.69601,0.17683 -2.15417,0 -3.41612,-1.25392 -1.25392,-1.25392 -1.25392,-3.39201 0,-2.21043 1.18961,-3.50454 1.19766,-1.30215 3.22322,-1.30215 1.81657,0 2.86954,1.17354 1.06101,1.1655 1.06101,3.17499 z m -1.47898,-0.43405 q -0.0161,-1.21373 -0.68323,-1.93714 -0.65911,-0.72342 -1.75227,-0.72342 -1.23784,0 -1.98537,0.6993 -0.73949,0.6993 -0.85202,1.9693 z"
           style="font-family:Oswald;-inkscape-font-specification:Oswald"
           id="path3051" />
        <path
           d="m 283.31677,144.4749 h 6.89655 v 1.36645 h -5.27289 v 3.53669 h 4.75846 v 1.36645 h -4.75846 v 5.73105 h -1.62366 z"
           style="font-family:Oswald;-inkscape-font-specification:Oswald"
           id="path3053" />
        <path
           d="m 295.62286,148.50994 q -1.18962,0 -1.88088,0.9324 -0.69126,0.92437 -0.69126,2.53999 0,1.61563 0.68322,2.54803 0.69126,0.92436 1.88892,0.92436 1.18157,0 1.87284,-0.9324 0.69126,-0.9324 0.69126,-2.53999 0,-1.59955 -0.69126,-2.53195 -0.69127,-0.94044 -1.87284,-0.94044 z m 0,-1.25392 q 1.9291,0 3.0303,1.25392 1.1012,1.25392 1.1012,3.47239 0,2.21044 -1.1012,3.47239 -1.1012,1.25392 -3.0303,1.25392 -1.93715,0 -3.03834,-1.25392 -1.09316,-1.26195 -1.09316,-3.47239 0,-2.21847 1.09316,-3.47239 1.10119,-1.25392 3.03834,-1.25392 z"
           style="font-family:Oswald;-inkscape-font-specification:Oswald"
           id="path3055" />
        <path
           d="m 307.42255,148.85557 q -0.24918,-0.14468 -0.54658,-0.20898 -0.28937,-0.0723 -0.64304,-0.0723 -1.25392,0 -1.9291,0.81987 -0.66715,0.81183 -0.66715,2.33904 v 4.74238 h -1.48702 v -9.00249 h 1.48702 v 1.3986 q 0.4662,-0.81987 1.21373,-1.21373 0.74752,-0.4019 1.81657,-0.4019 0.15272,0 0.33759,0.0241 0.18488,0.0161 0.40994,0.0563 z"
           style="font-family:Oswald;-inkscape-font-specification:Oswald"
           id="path3057" />
        <path
           d="m 315.69359,149.2012 q 0.55462,-0.9967 1.32626,-1.47094 0.77164,-0.47424 1.81658,-0.47424 1.40664,0 2.17024,0.98867 0.7636,0.98063 0.7636,2.7972 v 5.43365 h -1.48701 v -5.38542 q 0,-1.29411 -0.45817,-1.92107 -0.45816,-0.62696 -1.3986,-0.62696 -1.14942,0 -1.81657,0.76361 -0.66715,0.7636 -0.66715,2.08182 v 5.08802 h -1.48702 v -5.38542 q 0,-1.30215 -0.45816,-1.92107 -0.45817,-0.62696 -1.41468,-0.62696 -1.13335,0 -1.8005,0.77165 -0.66715,0.7636 -0.66715,2.07378 v 5.08802 h -1.48702 v -9.00249 h 1.48702 v 1.3986 q 0.50639,-0.82791 1.21373,-1.22177 0.70734,-0.39386 1.67993,-0.39386 0.98063,0 1.66385,0.49836 0.69127,0.49835 1.02082,1.44682 z"
           style="font-family:Oswald;-inkscape-font-specification:Oswald"
           id="path3059" />
        <path
           d="m 328.81151,151.95018 q -1.79246,0 -2.48372,0.40994 -0.69127,0.40993 -0.69127,1.3986 0,0.78771 0.51443,1.25392 0.52247,0.45816 1.41468,0.45816 1.2298,0 1.96929,-0.8681 0.74753,-0.87614 0.74753,-2.32296 v -0.32956 z m 2.94992,-0.61088 v 5.13624 h -1.47898 v -1.36645 q -0.50639,0.81987 -1.26195,1.21373 -0.75557,0.38582 -1.84873,0.38582 -1.38253,0 -2.20239,-0.77164 -0.81184,-0.77968 -0.81184,-2.08183 0,-1.51917 1.01278,-2.29081 1.02082,-0.77164 3.03834,-0.77164 h 2.07379 v -0.14469 q 0,-1.02081 -0.67518,-1.57543 -0.66715,-0.56266 -1.88088,-0.56266 -0.77164,0 -1.5031,0.18487 -0.73145,0.18488 -1.40664,0.55462 v -1.36645 q 0.81184,-0.31348 1.57544,-0.4662 0.7636,-0.16076 1.48702,-0.16076 1.95322,0 2.91777,1.01278 0.96455,1.01278 0.96455,3.0705 z"
           style="font-family:Oswald;-inkscape-font-specification:Oswald"
           id="path3061" />
        <path
           d="m 341.28639,147.81868 v 1.38252 q -0.62696,-0.34563 -1.26196,-0.51442 -0.62696,-0.17684 -1.26999,-0.17684 -1.4388,0 -2.23455,0.91633 -0.79576,0.90828 -0.79576,2.55606 0,1.64778 0.79576,2.5641 0.79575,0.90829 2.23455,0.90829 0.64303,0 1.26999,-0.16879 0.635,-0.17684 1.26196,-0.52247 v 1.36645 q -0.61892,0.28936 -1.28607,0.43405 -0.65911,0.14468 -1.40664,0.14468 -2.0336,0 -3.23125,-1.27803 -1.19766,-1.27803 -1.19766,-3.44828 0,-2.20239 1.20569,-3.46435 1.21373,-1.26196 3.31967,-1.26196 0.68323,0 1.3343,0.14469 0.65107,0.13664 1.26196,0.41797 z m -2.08987,8.65686 q 0.44209,0.49835 0.65911,0.91633 0.21703,0.42601 0.21703,0.81183 0,0.71537 -0.48228,1.07708 -0.48227,0.36975 -1.43075,0.36975 -0.36975,0 -0.72342,-0.0482 -0.34563,-0.0482 -0.69126,-0.14468 v -1.05297 q 0.27329,0.13664 0.57069,0.19291 0.29741,0.0643 0.67519,0.0643 0.47424,0 0.71538,-0.19291 0.24114,-0.19291 0.24114,-0.56266 0,-0.24113 -0.17684,-0.5948 -0.1688,-0.34564 -0.5305,-0.83595 z"
           style="font-family:Oswald;-inkscape-font-specification:Oswald"
           id="path3063" />
        <path
           d="m 347.94984,151.95018 q -1.79246,0 -2.48372,0.40994 -0.69127,0.40993 -0.69127,1.3986 0,0.78771 0.51443,1.25392 0.52247,0.45816 1.41468,0.45816 1.2298,0 1.96929,-0.8681 0.74753,-0.87614 0.74753,-2.32296 v -0.32956 z m 2.94992,-0.61088 v 5.13624 h -1.47898 v -1.36645 q -0.50639,0.81987 -1.26195,1.21373 -0.75557,0.38582 -1.84873,0.38582 -1.38253,0 -2.2024,-0.77164 -0.81183,-0.77968 -0.81183,-2.08183 0,-1.51917 1.01278,-2.29081 1.02082,-0.77164 3.03834,-0.77164 h 2.07379 v -0.14469 q 0,-1.02081 -0.67519,-1.57543 -0.66714,-0.56266 -1.88087,-0.56266 -0.77165,0 -1.5031,0.18487 -0.73145,0.18488 -1.40664,0.55462 v -1.36645 q 0.81183,-0.31348 1.57544,-0.4662 0.7636,-0.16076 1.48702,-0.16076 1.95322,0 2.91777,1.01278 0.96455,1.01278 0.96455,3.0705 z m -3.85017,-5.87574 -0.45816,-0.44208 q -0.17684,-0.16076 -0.31348,-0.2331 -0.12861,-0.0804 -0.2331,-0.0804 -0.30544,0 -0.45013,0.2974 -0.14468,0.28937 -0.16076,0.94848 h -1.00474 q 0.0161,-1.08512 0.42601,-1.67189 0.40994,-0.59481 1.14139,-0.59481 0.30544,0 0.56266,0.11253 0.25721,0.11253 0.55461,0.37778 l 0.45817,0.44209 q 0.17683,0.16076 0.30544,0.24114 0.13664,0.0723 0.24114,0.0723 0.30544,0 0.45012,-0.28937 0.14468,-0.2974 0.16076,-0.95651 h 1.00474 q -0.0161,1.08512 -0.42601,1.67993 -0.40993,0.58677 -1.14139,0.58677 -0.30544,0 -0.56265,-0.11253 -0.25722,-0.11254 -0.55462,-0.37779 z"
           style="font-family:Oswald;-inkscape-font-specification:Oswald"
           id="path3065" />
        <path
           d="m 357.43461,148.50994 q -1.18962,0 -1.88088,0.9324 -0.69126,0.92437 -0.69126,2.53999 0,1.61563 0.68322,2.54803 0.69127,0.92436 1.88892,0.92436 1.18158,0 1.87284,-0.9324 0.69126,-0.9324 0.69126,-2.53999 0,-1.59955 -0.69126,-2.53195 -0.69126,-0.94044 -1.87284,-0.94044 z m 0,-1.25392 q 1.9291,0 3.0303,1.25392 1.1012,1.25392 1.1012,3.47239 0,2.21044 -1.1012,3.47239 -1.1012,1.25392 -3.0303,1.25392 -1.93714,0 -3.03834,-1.25392 -1.09316,-1.26195 -1.09316,-3.47239 0,-2.21847 1.09316,-3.47239 1.1012,-1.25392 3.03834,-1.25392 z"
           style="font-family:Oswald;-inkscape-font-specification:Oswald"
           id="path3067" />
        <path
           d="m 378.30111,145.39926 v 1.71208 q -0.81987,-0.7636 -1.75227,-1.14139 -0.92437,-0.37778 -1.9693,-0.37778 -2.05771,0 -3.15087,1.26196 -1.09316,1.25391 -1.09316,3.63315 0,2.37119 1.09316,3.63314 1.09316,1.25392 3.15087,1.25392 1.04493,0 1.9693,-0.37778 0.9324,-0.37778 1.75227,-1.14139 v 1.69601 q -0.85202,0.57873 -1.80854,0.86809 -0.94847,0.28937 -2.00948,0.28937 -2.72486,0 -4.29226,-1.66385 -1.5674,-1.67189 -1.5674,-4.55751 0,-2.89366 1.5674,-4.55752 1.5674,-1.67189 4.29226,-1.67189 1.07708,0 2.02556,0.28937 0.95651,0.28133 1.79246,0.85202 z"
           style="font-family:Oswald;-inkscape-font-specification:Oswald"
           id="path3069" />
        <path
           d="m 384.2331,148.50994 q -1.18961,0 -1.88088,0.9324 -0.69126,0.92437 -0.69126,2.53999 0,1.61563 0.68323,2.54803 0.69126,0.92436 1.88891,0.92436 1.18158,0 1.87284,-0.9324 0.69126,-0.9324 0.69126,-2.53999 0,-1.59955 -0.69126,-2.53195 -0.69126,-0.94044 -1.87284,-0.94044 z m 0,-1.25392 q 1.92911,0 3.03031,1.25392 1.10119,1.25392 1.10119,3.47239 0,2.21044 -1.10119,3.47239 -1.1012,1.25392 -3.03031,1.25392 -1.93714,0 -3.03834,-1.25392 -1.09316,-1.26195 -1.09316,-3.47239 0,-2.21847 1.09316,-3.47239 1.1012,-1.25392 3.03834,-1.25392 z"
           style="font-family:Oswald;-inkscape-font-specification:Oswald"
           id="path3071" />
        <path
           d="m 398.29949,151.04189 v 5.43365 h -1.47898 v -5.38542 q 0,-1.27803 -0.49835,-1.91303 -0.49835,-0.635 -1.49506,-0.635 -1.19765,0 -1.88891,0.76361 -0.69127,0.7636 -0.69127,2.08182 v 5.08802 h -1.48702 v -9.00249 h 1.48702 v 1.3986 q 0.53051,-0.81183 1.24588,-1.21373 0.72342,-0.4019 1.66386,-0.4019 1.55132,0 2.34707,0.96456 0.79576,0.95651 0.79576,2.82131 z"
           style="font-family:Oswald;-inkscape-font-specification:Oswald"
           id="path3073" />
        <path
           d="m 402.71233,144.91698 v 2.55607 h 3.04638 v 1.14942 h -3.04638 v 4.88707 q 0,1.1012 0.29741,1.41468 0.30544,0.31348 1.2298,0.31348 h 1.51917 v 1.23784 h -1.51917 q -1.71208,0 -2.36315,-0.635 -0.65108,-0.64303 -0.65108,-2.331 v -4.88707 h -1.08512 v -1.14942 h 1.08512 v -2.55607 z"
           style="font-family:Oswald;-inkscape-font-specification:Oswald"
           id="path3075" />
        <path
           d="m 407.70388,147.47305 h 1.47898 v 9.00249 h -1.47898 z m 0,-3.50454 h 1.47898 v 1.87284 h -1.47898 z"
           style="font-family:Oswald;-inkscape-font-specification:Oswald"
           id="path3077" />
        <path
           d="m 419.76079,151.04189 v 5.43365 h -1.47898 v -5.38542 q 0,-1.27803 -0.49835,-1.91303 -0.49835,-0.635 -1.49506,-0.635 -1.19765,0 -1.88891,0.76361 -0.69126,0.7636 -0.69126,2.08182 v 5.08802 h -1.48702 v -9.00249 h 1.48702 v 1.3986 q 0.5305,-0.81183 1.24588,-1.21373 0.72341,-0.4019 1.66385,-0.4019 1.55132,0 2.34708,0.96456 0.79575,0.95651 0.79575,2.82131 z"
           style="font-family:Oswald;-inkscape-font-specification:Oswald"
           id="path3079" />
        <path
           d="m 422.55799,152.92277 v -5.44972 h 1.47899 v 5.39346 q 0,1.27803 0.49835,1.92106 0.49835,0.635 1.49505,0.635 1.19766,0 1.88892,-0.7636 0.6993,-0.76361 0.6993,-2.08183 v -5.10409 h 1.47898 v 9.00249 h -1.47898 v -1.38253 q -0.53854,0.81987 -1.25392,1.22177 -0.70734,0.39386 -1.64777,0.39386 -1.55133,0 -2.35512,-0.96455 -0.8038,-0.96456 -0.8038,-2.82132 z m 3.72157,-5.66675 z"
           style="font-family:Oswald;-inkscape-font-specification:Oswald"
           id="path3081" />
        <path
           d="m 437.23527,151.95018 q -1.79246,0 -2.48372,0.40994 -0.69127,0.40993 -0.69127,1.3986 0,0.78771 0.51443,1.25392 0.52247,0.45816 1.41468,0.45816 1.2298,0 1.96929,-0.8681 0.74753,-0.87614 0.74753,-2.32296 v -0.32956 z m 2.94992,-0.61088 v 5.13624 h -1.47898 v -1.36645 q -0.50639,0.81987 -1.26195,1.21373 -0.75557,0.38582 -1.84873,0.38582 -1.38253,0 -2.2024,-0.77164 -0.81183,-0.77968 -0.81183,-2.08183 0,-1.51917 1.01278,-2.29081 1.02082,-0.77164 3.03834,-0.77164 h 2.07379 v -0.14469 q 0,-1.02081 -0.67518,-1.57543 -0.66715,-0.56266 -1.88088,-0.56266 -0.77164,0 -1.5031,0.18487 -0.73145,0.18488 -1.40664,0.55462 v -1.36645 q 0.81184,-0.31348 1.57544,-0.4662 0.7636,-0.16076 1.48702,-0.16076 1.95322,0 2.91777,1.01278 0.96455,1.01278 0.96455,3.0705 z"
           style="font-family:Oswald;-inkscape-font-specification:Oswald"
           id="path3083" />
        <path
           d="m 449.15554,148.8395 v -4.87099 h 1.47898 v 12.50703 h -1.47898 v -1.35037 q -0.4662,0.80379 -1.18158,1.19765 -0.70734,0.38582 -1.70404,0.38582 -1.63171,0 -2.66056,-1.30215 -1.02082,-1.30214 -1.02082,-3.42416 0,-2.12201 1.02082,-3.42416 1.02885,-1.30215 2.66056,-1.30215 0.9967,0 1.70404,0.39386 0.71538,0.38582 1.18158,1.18962 z m -5.03979,3.14283 q 0,1.6317 0.66715,2.5641 0.67518,0.92437 1.84872,0.92437 1.17354,0 1.84873,-0.92437 0.67519,-0.9324 0.67519,-2.5641 0,-1.6317 -0.67519,-2.55606 -0.67519,-0.9324 -1.84873,-0.9324 -1.17354,0 -1.84872,0.9324 -0.66715,0.92436 -0.66715,2.55606 z"
           style="font-family:Oswald;-inkscape-font-specification:Oswald"
           id="path3085" />
        <path
           d="m 457.77221,151.95018 q -1.79246,0 -2.48372,0.40994 -0.69126,0.40993 -0.69126,1.3986 0,0.78771 0.51442,1.25392 0.52247,0.45816 1.41468,0.45816 1.22981,0 1.9693,-0.8681 0.74752,-0.87614 0.74752,-2.32296 v -0.32956 z m 2.94993,-0.61088 v 5.13624 h -1.47899 v -1.36645 q -0.50639,0.81987 -1.26195,1.21373 -0.75557,0.38582 -1.84873,0.38582 -1.38252,0 -2.20239,-0.77164 -0.81184,-0.77968 -0.81184,-2.08183 0,-1.51917 1.01278,-2.29081 1.02082,-0.77164 3.03835,-0.77164 h 2.07378 v -0.14469 q 0,-1.02081 -0.67518,-1.57543 -0.66715,-0.56266 -1.88088,-0.56266 -0.77164,0 -1.5031,0.18487 -0.73145,0.18488 -1.40663,0.55462 v -1.36645 q 0.81183,-0.31348 1.57543,-0.4662 0.76361,-0.16076 1.48702,-0.16076 1.95322,0 2.91777,1.01278 0.96456,1.01278 0.96456,3.0705 z"
           style="font-family:Oswald;-inkscape-font-specification:Oswald"
           id="path3087" />
        <path
           d="m 212.19708,172.18167 v 0.4662 h -6.83225 q 0,2.17025 0.84398,3.03835 0.9324,0.96455 2.77309,0.96455 0.48228,0 1.27803,-0.20899 0.8038,-0.20898 1.59152,-0.62696 v 0.77968 q -0.79576,0.3376 -1.6317,0.51443 -0.83595,0.17684 -1.32626,0.17684 -2.08183,0 -3.1348,-1.12532 -1.14139,-1.19765 -1.14139,-3.51258 0,-2.40334 1.04493,-3.58492 1.06905,-1.2298 2.97404,-1.2298 1.76835,0 2.6686,1.1655 0.89221,1.22177 0.89221,3.18302 z m -0.74753,-0.16075 q 0,-1.89696 -0.85202,-2.76506 -0.71538,-0.77164 -1.94518,-0.77164 -1.34234,0 -2.25063,0.8038 -0.83594,0.74752 -1.00474,2.7329 z"
           style="font-weight:300;font-family:Oswald;-inkscape-font-specification:'Oswald Light'"
           id="path3089" />
        <path
           d="m 221.78634,170.01143 q 0.41797,-1.08512 1.31822,-1.63974 0.85202,-0.53854 2.02556,-0.53854 1.17354,0 1.88088,0.82791 0.71538,0.81987 0.71538,2.95796 v 5.43365 h -0.73145 v -5.38542 q 0,-1.86481 -0.51443,-2.52392 -0.51443,-0.65911 -1.36645,-0.65911 -1.23785,0 -2.18632,0.76361 -1.0369,0.8279 -1.0369,2.71682 v 5.08802 h -0.73949 v -5.38542 q 0,-1.8005 -0.49835,-2.49177 -0.49835,-0.69126 -1.38252,-0.69126 -1.23785,0 -2.18632,0.77164 -1.0369,0.82791 -1.0369,2.70879 v 5.08802 h -0.73949 v -9.0025 h 0.73949 v 1.68797 q 0.39386,-0.88417 1.22177,-1.3986 0.83594,-0.50639 2.04967,-0.50639 0.78772,0 1.51917,0.5305 0.56266,0.40994 0.94848,1.64778 z"
           style="font-weight:300;font-family:Oswald;-inkscape-font-specification:'Oswald Light'"
           id="path3091" />
        <path
           d="m 236.71279,165.05202 h 6.78403 v 0.66715 h -5.96416 v 4.60574 h 5.71498 v 0.65107 h -5.71498 v 5.42561 h 6.10884 v 0.65108 h -6.92871 z"
           style="font-weight:300;font-family:Oswald;-inkscape-font-specification:'Oswald Light'"
           id="path3093" />
        <path
           d="m 253.77734,171.61902 v 5.43365 h -0.73949 v -5.38542 q 0,-1.75227 -0.56266,-2.46765 -0.56265,-0.71538 -1.65581,-0.71538 -1.27803,0 -2.18632,0.77164 -0.91633,0.77968 -0.91633,2.70879 v 5.08802 h -0.73949 v -9.0025 h 0.73949 v 1.68797 q 0.39386,-0.81987 1.0369,-1.25392 0.94848,-0.65107 2.0979,-0.65107 1.3343,0 2.13005,0.90829 0.79576,0.90025 0.79576,2.87758 z"
           style="font-weight:300;font-family:Oswald;-inkscape-font-specification:'Oswald Light'"
           id="path3095" />
        <path
           d="m 261.28478,164.54563 v 0.62696 h -1.04493 q -0.81987,0 -1.25392,0.42601 -0.53051,0.52247 -0.53051,1.65582 v 0.79575 h 2.42746 v 0.62696 h -2.42746 v 8.37554 h -0.74753 v -8.37554 h -1.41467 v -0.62696 h 1.41467 v -0.62696 q 0,-1.50309 0.68323,-2.18632 0.67519,-0.69126 1.8648,-0.69126 z"
           style="font-weight:300;font-family:Oswald;-inkscape-font-specification:'Oswald Light'"
           id="path3097" />
        <path
           d="m 268.09291,168.68517 q -0.17683,-0.0884 -0.48228,-0.15272 -0.27329,-0.0482 -0.69126,-0.0482 -1.36645,0 -2.2667,1.01278 -0.70734,0.81987 -0.70734,2.81328 v 4.74239 h -0.72341 v -9.0025 h 0.72341 v 1.68797 q 0.36171,-0.72341 1.01278,-1.22177 0.90025,-0.68322 2.12202,-0.68322 0.31348,0 0.54658,0.0241 0.24114,0 0.4662,0.0563 z"
           style="font-weight:300;font-family:Oswald;-inkscape-font-specification:'Oswald Light'"
           id="path3099" />
        <path
           d="m 276.6292,172.18167 v 0.4662 h -6.83225 q 0,2.17025 0.84398,3.03835 0.93241,0.96455 2.77309,0.96455 0.48228,0 1.27804,-0.20899 0.80379,-0.20898 1.59151,-0.62696 v 0.77968 q -0.79576,0.3376 -1.6317,0.51443 -0.83595,0.17684 -1.32626,0.17684 -2.08183,0 -3.1348,-1.12532 -1.14139,-1.19765 -1.14139,-3.51258 0,-2.40334 1.04493,-3.58492 1.06905,-1.2298 2.97404,-1.2298 1.76835,0 2.6686,1.1655 0.89221,1.22177 0.89221,3.18302 z m -0.74753,-0.16075 q 0,-1.89696 -0.85202,-2.76506 -0.71538,-0.77164 -1.94518,-0.77164 -1.34234,0 -2.25062,0.8038 -0.83595,0.74752 -1.00475,2.7329 z"
           style="font-weight:300;font-family:Oswald;-inkscape-font-specification:'Oswald Light'"
           id="path3101" />
        <path
           d="m 286.53998,171.61902 v 5.43365 h -0.73949 v -5.38542 q 0,-1.75227 -0.56265,-2.46765 -0.56266,-0.71538 -1.65582,-0.71538 -1.27803,0 -2.18632,0.77164 -0.91632,0.77968 -0.91632,2.70879 v 5.08802 h -0.73949 v -9.0025 h 0.73949 v 1.68797 q 0.39386,-0.81987 1.03689,-1.25392 0.94848,-0.65107 2.0979,-0.65107 1.3343,0 2.13006,0.90829 0.79575,0.90025 0.79575,2.87758 z"
           style="font-weight:300;font-family:Oswald;-inkscape-font-specification:'Oswald Light'"
           id="path3103" />
        <path
           d="m 290.95281,165.49411 v 2.55606 h 3.04638 v 0.62696 h -3.04638 v 5.40954 q 0,1.02885 0.26525,1.43879 0.54658,0.90025 1.59151,0.90025 h 1.18962 v 0.62696 h -1.14943 q -1.1012,0 -1.87284,-0.64304 -0.77164,-0.64303 -0.77164,-2.32296 v -5.40954 h -1.07708 v -0.62696 h 1.07708 v -2.55606 z"
           style="font-weight:300;font-family:Oswald;-inkscape-font-specification:'Oswald Light'"
           id="path3105" />
        <path
           d="m 300.22859,171.97269 q -1.78442,0 -2.57214,0.635 -0.78772,0.63499 -0.78772,1.85676 0,1.18961 0.65108,1.68797 0.65107,0.49835 1.54328,0.49835 1.68797,0 2.42746,-1.43075 0.74753,-1.43076 0.74753,-2.69271 v -0.55462 z m 2.75702,-0.0563 v 5.13625 h -0.73146 v -2.44354 q -0.61892,1.79246 -1.63974,2.28278 -0.81183,0.39386 -1.61562,0.39386 -1.34234,0 -2.11398,-0.71538 -0.77164,-0.72342 -0.77164,-2.12202 0,-1.3986 1.00474,-2.23454 1.00474,-0.84399 3.28752,-0.84399 h 1.83265 v -0.14468 q 0,-1.19765 -0.68323,-1.9693 -0.67518,-0.77164 -2.23454,-0.77164 -0.77165,0 -1.57544,0.28937 -0.51443,0.18487 -1.3343,0.74753 v -0.79576 q 0.71538,-0.44209 1.3343,-0.62696 0.90025,-0.26525 1.72816,-0.26525 1.59151,0 2.62037,0.96455 0.89221,0.82791 0.89221,3.11872 z"
           style="font-weight:300;font-family:Oswald;-inkscape-font-specification:'Oswald Light'"
           id="path3107" />
        <path
           d="m 313.19379,170.01143 q 0.41797,-1.08512 1.31822,-1.63974 0.85203,-0.53854 2.02556,-0.53854 1.17354,0 1.88088,0.82791 0.71538,0.81987 0.71538,2.95796 v 5.43365 h -0.73145 v -5.38542 q 0,-1.86481 -0.51443,-2.52392 -0.51443,-0.65911 -1.36645,-0.65911 -1.23784,0 -2.18632,0.76361 -1.03689,0.8279 -1.03689,2.71682 v 5.08802 h -0.7395 v -5.38542 q 0,-1.8005 -0.49835,-2.49177 -0.49835,-0.69126 -1.38252,-0.69126 -1.23785,0 -2.18632,0.77164 -1.0369,0.82791 -1.0369,2.70879 v 5.08802 h -0.73949 v -9.0025 h 0.73949 v 1.68797 q 0.39386,-0.88417 1.22177,-1.3986 0.83595,-0.50639 2.04967,-0.50639 0.78772,0 1.51917,0.5305 0.56266,0.40994 0.94848,1.64778 z"
           style="font-weight:300;font-family:Oswald;-inkscape-font-specification:'Oswald Light'"
           id="path3109" />
        <path
           d="m 329.76802,172.18167 v 0.4662 h -6.83224 q 0,2.17025 0.84398,3.03835 0.9324,0.96455 2.77309,0.96455 0.48227,0 1.27803,-0.20899 0.80379,-0.20898 1.59151,-0.62696 v 0.77968 q -0.79575,0.3376 -1.6317,0.51443 -0.83594,0.17684 -1.32626,0.17684 -2.08183,0 -3.1348,-1.12532 -1.14138,-1.19765 -1.14138,-3.51258 0,-2.40334 1.04493,-3.58492 1.06905,-1.2298 2.97404,-1.2298 1.76834,0 2.66859,1.1655 0.89221,1.22177 0.89221,3.18302 z m -0.74752,-0.16075 q 0,-1.89696 -0.85203,-2.76506 -0.71537,-0.77164 -1.94518,-0.77164 -1.34233,0 -2.25062,0.8038 -0.83595,0.74752 -1.00474,2.7329 z"
           style="font-weight:300;font-family:Oswald;-inkscape-font-specification:'Oswald Light'"
           id="path3111" />
        <path
           d="m 339.6788,171.61902 v 5.43365 h -0.73949 v -5.38542 q 0,-1.75227 -0.56266,-2.46765 -0.56265,-0.71538 -1.65581,-0.71538 -1.27803,0 -2.18632,0.77164 -0.91633,0.77968 -0.91633,2.70879 v 5.08802 h -0.73949 v -9.0025 h 0.73949 v 1.68797 q 0.39386,-0.81987 1.0369,-1.25392 0.94847,-0.65107 2.0979,-0.65107 1.3343,0 2.13005,0.90829 0.79576,0.90025 0.79576,2.87758 z"
           style="font-weight:300;font-family:Oswald;-inkscape-font-specification:'Oswald Light'"
           id="path3113" />
        <path
           d="m 344.09163,165.49411 v 2.55606 h 3.04637 v 0.62696 h -3.04637 v 5.40954 q 0,1.02885 0.26525,1.43879 0.54658,0.90025 1.59151,0.90025 h 1.18961 v 0.62696 h -1.14942 q -1.1012,0 -1.87284,-0.64304 -0.77164,-0.64303 -0.77164,-2.32296 v -5.40954 h -1.07709 v -0.62696 h 1.07709 v -2.55606 z"
           style="font-weight:300;font-family:Oswald;-inkscape-font-specification:'Oswald Light'"
           id="path3115" />
        <path
           d="m 355.11968,169.59346 q -0.79575,-1.10924 -2.17024,-1.10924 -1.37449,0 -2.17025,1.1012 -0.80379,1.09316 -0.80379,2.95796 0,1.91303 0.79576,3.00619 0.79575,1.1012 2.17828,1.1012 1.37449,0 2.17024,-1.1012 0.8038,-1.10923 0.8038,-3.00619 0,-1.84069 -0.8038,-2.94992 z m -2.17828,-1.76031 q 1.72012,0 2.71682,1.28607 1.00475,1.29411 1.00475,3.4322 0,2.21043 -1.00475,3.48847 -0.9967,1.28607 -2.71682,1.28607 -1.7362,0 -2.74094,-1.27804 -0.9967,-1.27803 -0.9967,-3.4965 0,-2.16221 1.00474,-3.44024 1.00474,-1.27803 2.7329,-1.27803 z"
           style="font-weight:300;font-family:Oswald;-inkscape-font-specification:'Oswald Light'"
           id="path3117" />
        <path
           d="m 368.67166,171.97269 q -1.78443,0 -2.57215,0.635 -0.78771,0.63499 -0.78771,1.85676 0,1.18961 0.65107,1.68797 0.65107,0.49835 1.54328,0.49835 1.68797,0 2.42746,-1.43075 0.74753,-1.43076 0.74753,-2.69271 v -0.55462 z m 2.75701,-0.0563 v 5.13625 h -0.73145 v -2.44354 q -0.61893,1.79246 -1.63974,2.28278 -0.81184,0.39386 -1.61563,0.39386 -1.34234,0 -2.11398,-0.71538 -0.77164,-0.72342 -0.77164,-2.12202 0,-1.3986 1.00474,-2.23454 1.00475,-0.84399 3.28752,-0.84399 h 1.83265 v -0.14468 q 0,-1.19765 -0.68322,-1.9693 -0.67519,-0.77164 -2.23455,-0.77164 -0.77164,0 -1.57544,0.28937 -0.51443,0.18487 -1.3343,0.74753 v -0.79576 q 0.71538,-0.44209 1.3343,-0.62696 0.90025,-0.26525 1.72816,-0.26525 1.59151,0 2.62037,0.96455 0.89221,0.82791 0.89221,3.11872 z"
           style="font-weight:300;font-family:Oswald;-inkscape-font-specification:'Oswald Light'"
           id="path3119" />
        <path
           d="m 380.51153,169.59346 q -0.79576,-1.10924 -2.17025,-1.10924 -1.37448,0 -2.17024,1.1012 -0.80379,1.09316 -0.80379,2.95796 0,1.91303 0.79575,3.00619 0.79576,1.1012 2.17828,1.1012 1.37449,0 2.17025,-1.1012 0.80379,-1.10923 0.80379,-3.00619 0,-1.84069 -0.80379,-2.94992 z m -2.17828,-1.76031 q 1.72011,0 2.71682,1.28607 1.00474,1.29411 1.00474,3.4322 0,2.21043 -1.00474,3.48847 -0.99671,1.28607 -2.71682,1.28607 -1.7362,0 -2.74094,-1.27804 -0.99671,-1.27803 -0.99671,-3.4965 0,-2.16221 1.00475,-3.44024 1.00474,-1.27803 2.7329,-1.27803 z"
           style="font-weight:300;font-family:Oswald;-inkscape-font-specification:'Oswald Light'"
           id="path3121" />
        <path
           d="m 395.5666,171.42611 q 0.49835,0.17683 0.96455,0.75556 0.32955,0.41798 0.94044,1.59152 l 1.67993,3.27948 h -0.86006 l -1.71208,-3.29556 q -0.66715,-1.29411 -1.27804,-1.71208 -0.62696,-0.41797 -1.696,-0.41797 h -2.17828 v 5.42561 h -0.8038 v -12.00065 h 3.25537 q 1.84069,0 2.74897,0.86006 0.90829,0.86006 0.90829,2.59626 0,1.11727 -0.47424,1.88087 -0.45012,0.74753 -1.49505,1.0369 z m -4.13954,-5.71498 v 5.24878 h 2.65252 q 1.28607,0 1.94518,-0.66715 0.65911,-0.66715 0.65911,-1.9693 0,-1.29411 -0.65911,-1.95322 -0.65911,-0.65911 -1.94518,-0.65911 z"
           style="font-weight:300;font-family:Oswald;-inkscape-font-specification:'Oswald Light'"
           id="path3123" />
        <path
           d="m 405.13978,171.97269 q -1.78442,0 -2.57214,0.635 -0.78772,0.63499 -0.78772,1.85676 0,1.18961 0.65107,1.68797 0.65108,0.49835 1.54329,0.49835 1.68797,0 2.42746,-1.43075 0.74752,-1.43076 0.74752,-2.69271 v -0.55462 z m 2.75701,-0.0563 v 5.13625 h -0.73145 v -2.44354 q -0.61892,1.79246 -1.63974,2.28278 -0.81183,0.39386 -1.61563,0.39386 -1.34233,0 -2.11397,-0.71538 -0.77165,-0.72342 -0.77165,-2.12202 0,-1.3986 1.00475,-2.23454 1.00474,-0.84399 3.28751,-0.84399 h 1.83265 v -0.14468 q 0,-1.19765 -0.68322,-1.9693 -0.67519,-0.77164 -2.23455,-0.77164 -0.77164,0 -1.57543,0.28937 -0.51443,0.18487 -1.3343,0.74753 v -0.79576 q 0.71537,-0.44209 1.3343,-0.62696 0.90025,-0.26525 1.72815,-0.26525 1.59152,0 2.62037,0.96455 0.89221,0.82791 0.89221,3.11872 z"
           style="font-weight:300;font-family:Oswald;-inkscape-font-specification:'Oswald Light'"
           id="path3125" />
        <path
           d="m 417.7915,168.48422 v 0.78772 q -0.66715,-0.40993 -1.1012,-0.55462 -0.74753,-0.2331 -1.43075,-0.2331 -1.94518,0 -2.78917,0.99671 -0.84398,0.9967 -0.84398,3.07853 0,2.0979 0.84398,3.0946 0.84399,0.99671 2.78917,0.99671 0.64303,0 1.26999,-0.17684 0.635,-0.16879 1.26196,-0.51442 v 0.74752 q -0.61892,0.28937 -1.27803,0.43405 -0.66715,0.14469 -1.31823,0.14469 -1.97733,0 -3.14283,-1.06905 -1.1655,-1.07708 -1.1655,-3.65726 0,-2.58018 1.1655,-3.65727 1.1655,-1.06904 3.14283,-1.06904 0.64304,0 1.36645,0.18487 0.72342,0.17684 1.22981,0.4662 z"
           style="font-weight:300;font-family:Oswald;-inkscape-font-specification:'Oswald Light'"
           id="path3127" />
        <path
           d="m 420.66104,168.05017 h 0.73949 v 9.0025 h -0.73949 z m 0,-3.50454 h 0.73949 v 1.01278 h -0.73949 z"
           style="font-weight:300;font-family:Oswald;-inkscape-font-specification:'Oswald Light'"
           id="path3129" />
        <path
           d="m 430.34677,168.31543 v 0.81183 q -0.77968,-0.43405 -0.97259,-0.48228 -0.56266,-0.13664 -1.39861,-0.16076 -1.26999,0 -1.99341,0.50639 -0.55461,0.41798 -0.55461,1.43076 0,0.68322 0.52246,1.06904 0.55462,0.41797 1.58348,0.64304 l 0.50639,0.11253 q 1.27803,0.28133 1.93714,0.79575 0.7636,0.58677 0.80379,1.52721 0,1.27803 -0.75556,2.00145 -0.8038,0.71538 -2.58822,0.71538 -0.9967,0 -1.51113,-0.13665 -0.61892,-0.17683 -1.30215,-0.42601 v -0.92436 q 0.98063,0.56265 1.27,0.64303 0.79575,0.20899 1.57543,0.20899 1.30215,0 1.92107,-0.53854 0.62696,-0.54658 0.62696,-1.43076 0,-0.73949 -0.41797,-1.07708 -0.60285,-0.48228 -1.92107,-0.78772 l -0.51443,-0.12057 q -1.13335,-0.26525 -1.72816,-0.74753 -0.74752,-0.60284 -0.74752,-1.4629 0,-1.41468 0.90025,-2.0336 0.90024,-0.61892 2.21043,-0.61892 1.11727,0 1.54328,0.12057 0.51443,0.14468 1.00475,0.36171 z"
           style="font-weight:300;font-family:Oswald;-inkscape-font-specification:'Oswald Light'"
           id="path3131" />
        <path
           d="m 440.30577,170.01143 q 0.41797,-1.08512 1.31822,-1.63974 0.85202,-0.53854 2.02556,-0.53854 1.17354,0 1.88088,0.82791 0.71538,0.81987 0.71538,2.95796 v 5.43365 h -0.73146 v -5.38542 q 0,-1.86481 -0.51442,-2.52392 -0.51443,-0.65911 -1.36645,-0.65911 -1.23785,0 -2.18632,0.76361 -1.0369,0.8279 -1.0369,2.71682 v 5.08802 h -0.73949 v -5.38542 q 0,-1.8005 -0.49835,-2.49177 -0.49835,-0.69126 -1.38253,-0.69126 -1.23784,0 -2.18632,0.77164 -1.03689,0.82791 -1.03689,2.70879 v 5.08802 h -0.73949 v -9.0025 h 0.73949 v 1.68797 q 0.39386,-0.88417 1.22177,-1.3986 0.83594,-0.50639 2.04967,-0.50639 0.78772,0 1.51917,0.5305 0.56266,0.40994 0.94848,1.64778 z"
           style="font-weight:300;font-family:Oswald;-inkscape-font-specification:'Oswald Light'"
           id="path3133" />
        <path
           d="m 455.21615,169.59346 q -0.79576,-1.10924 -2.17025,-1.10924 -1.37448,0 -2.17024,1.1012 -0.80379,1.09316 -0.80379,2.95796 0,1.91303 0.79575,3.00619 0.79576,1.1012 2.17828,1.1012 1.37449,0 2.17025,-1.1012 0.80379,-1.10923 0.80379,-3.00619 0,-1.84069 -0.80379,-2.94992 z m -2.17828,-1.76031 q 1.72011,0 2.71682,1.28607 1.00474,1.29411 1.00474,3.4322 0,2.21043 -1.00474,3.48847 -0.99671,1.28607 -2.71682,1.28607 -1.7362,0 -2.74094,-1.27804 -0.99671,-1.27803 -0.99671,-3.4965 0,-2.16221 1.00475,-3.44024 1.00474,-1.27803 2.7329,-1.27803 z"
           style="font-weight:300;font-family:Oswald;-inkscape-font-specification:'Oswald Light'"
           id="path3135" />
        <path
           d="m 212.19708,192.7588 v 0.4662 h -6.83225 q 0,2.17024 0.84398,3.03834 0.9324,0.96455 2.77309,0.96455 0.48228,0 1.27803,-0.20898 0.8038,-0.20899 1.59152,-0.62696 v 0.77968 q -0.79576,0.33759 -1.6317,0.51443 -0.83595,0.17683 -1.32626,0.17683 -2.08183,0 -3.1348,-1.12531 -1.14139,-1.19765 -1.14139,-3.51258 0,-2.40334 1.04493,-3.58492 1.06905,-1.22981 2.97404,-1.22981 1.76835,0 2.6686,1.16551 0.89221,1.22176 0.89221,3.18302 z m -0.74753,-0.16076 q 0,-1.89695 -0.85202,-2.76505 -0.71538,-0.77164 -1.94518,-0.77164 -1.34234,0 -2.25063,0.80379 -0.83594,0.74753 -1.00474,2.7329 z"
           style="font-weight:300;font-family:Oswald;-inkscape-font-specification:'Oswald Light'"
           id="path3137" />
        <path
           d="m 224.14146,192.54981 q -1.78443,0 -2.57214,0.635 -0.78772,0.635 -0.78772,1.85676 0,1.18962 0.65107,1.68797 0.65107,0.49835 1.54328,0.49835 1.68797,0 2.42746,-1.43075 0.74753,-1.43075 0.74753,-2.69271 v -0.55462 z m 2.75701,-0.0563 v 5.13624 h -0.73145 v -2.44353 q -0.61892,1.79246 -1.63974,2.28277 -0.81183,0.39386 -1.61563,0.39386 -1.34233,0 -2.11398,-0.71538 -0.77164,-0.72341 -0.77164,-2.12201 0,-1.3986 1.00474,-2.23455 1.00475,-0.84398 3.28752,-0.84398 h 1.83265 v -0.14468 q 0,-1.19766 -0.68322,-1.9693 -0.67519,-0.77164 -2.23455,-0.77164 -0.77164,0 -1.57544,0.28936 -0.51443,0.18488 -1.3343,0.74753 v -0.79575 q 0.71538,-0.44209 1.3343,-0.62696 0.90025,-0.26526 1.72816,-0.26526 1.59151,0 2.62037,0.96456 0.89221,0.82791 0.89221,3.11872 z"
           style="font-weight:300;font-family:Oswald;-inkscape-font-specification:'Oswald Light'"
           id="path3139" />
        <path
           d="m 235.98938,185.62915 h 0.83595 v 12.00064 h -0.83595 z"
           style="font-weight:300;font-family:Oswald;-inkscape-font-specification:'Oswald Light'"
           id="path3141" />
        <path
           d="m 247.51579,192.19614 v 5.43365 h -0.73949 v -5.38542 q 0,-1.75227 -0.56266,-2.46765 -0.56266,-0.71537 -1.65582,-0.71537 -1.27803,0 -2.18632,0.77164 -0.91632,0.77968 -0.91632,2.70879 v 5.08801 h -0.73949 v -9.00249 h 0.73949 v 1.68797 q 0.39386,-0.81987 1.03689,-1.25392 0.94848,-0.65108 2.09791,-0.65108 1.33429,0 2.13005,0.90829 0.79576,0.90025 0.79576,2.87758 z"
           style="font-weight:300;font-family:Oswald;-inkscape-font-specification:'Oswald Light'"
           id="path3143" />
        <path
           d="m 251.92862,186.07123 v 2.55607 h 3.04638 v 0.62696 h -3.04638 v 5.40953 q 0,1.02886 0.26525,1.43879 0.54658,0.90025 1.59151,0.90025 h 1.18962 v 0.62696 h -1.14943 q -1.1012,0 -1.87284,-0.64303 -0.77164,-0.64304 -0.77164,-2.32297 v -5.40953 H 250.104 v -0.62696 h 1.07709 v -2.55607 z"
           style="font-weight:300;font-family:Oswald;-inkscape-font-specification:'Oswald Light'"
           id="path3145" />
        <path
           d="m 262.95667,190.17058 q -0.79576,-1.10923 -2.17025,-1.10923 -1.37448,0 -2.17024,1.1012 -0.80379,1.09316 -0.80379,2.95796 0,1.91303 0.79575,3.00619 0.79576,1.10119 2.17828,1.10119 1.37449,0 2.17025,-1.10119 0.80379,-1.10924 0.80379,-3.00619 0,-1.84069 -0.80379,-2.94993 z m -2.17828,-1.76031 q 1.72012,0 2.71682,1.28607 1.00474,1.29411 1.00474,3.43221 0,2.21043 -1.00474,3.48846 -0.9967,1.28607 -2.71682,1.28607 -1.7362,0 -2.74094,-1.27803 -0.99671,-1.27803 -0.99671,-3.4965 0,-2.16221 1.00475,-3.44024 1.00474,-1.27804 2.7329,-1.27804 z"
           style="font-weight:300;font-family:Oswald;-inkscape-font-specification:'Oswald Light'"
           id="path3147" />
        <path
           d="m 267.67494,185.12276 h 0.73949 v 12.50703 h -0.73949 z"
           style="font-weight:300;font-family:Oswald;-inkscape-font-specification:'Oswald Light'"
           id="path3149" />
        <path
           d="m 279.26564,192.7588 v 0.4662 h -6.83224 q 0,2.17024 0.84398,3.03834 0.9324,0.96455 2.77309,0.96455 0.48227,0 1.27803,-0.20898 0.80379,-0.20899 1.59151,-0.62696 v 0.77968 q -0.79575,0.33759 -1.6317,0.51443 -0.83595,0.17683 -1.32626,0.17683 -2.08183,0 -3.1348,-1.12531 -1.14138,-1.19765 -1.14138,-3.51258 0,-2.40334 1.04493,-3.58492 1.06904,-1.22981 2.97404,-1.22981 1.76834,0 2.66859,1.16551 0.89221,1.22176 0.89221,3.18302 z m -0.74752,-0.16076 q 0,-1.89695 -0.85203,-2.76505 -0.71537,-0.77164 -1.94518,-0.77164 -1.34233,0 -2.25062,0.80379 -0.83595,0.74753 -1.00474,2.7329 z"
           style="font-weight:300;font-family:Oswald;-inkscape-font-specification:'Oswald Light'"
           id="path3151" />
        <path
           d="m 287.2634,189.2623 q -0.17684,-0.0884 -0.48228,-0.15272 -0.27329,-0.0482 -0.69126,-0.0482 -1.36645,0 -2.2667,1.01278 -0.70734,0.81987 -0.70734,2.81328 v 4.74238 h -0.72341 v -9.00249 h 0.72341 v 1.68797 q 0.36171,-0.72342 1.01278,-1.22177 0.90025,-0.68323 2.12202,-0.68323 0.31348,0 0.54658,0.0241 0.24114,0 0.4662,0.0563 z"
           style="font-weight:300;font-family:Oswald;-inkscape-font-specification:'Oswald Light'"
           id="path3153" />
        <path
           d="m 292.74527,192.54981 q -1.78442,0 -2.57214,0.635 -0.78772,0.635 -0.78772,1.85676 0,1.18962 0.65108,1.68797 0.65107,0.49835 1.54328,0.49835 1.68797,0 2.42746,-1.43075 0.74753,-1.43075 0.74753,-2.69271 v -0.55462 z m 2.75701,-0.0563 v 5.13624 h -0.73145 v -2.44353 q -0.61892,1.79246 -1.63974,2.28277 -0.81183,0.39386 -1.61562,0.39386 -1.34234,0 -2.11398,-0.71538 -0.77164,-0.72341 -0.77164,-2.12201 0,-1.3986 1.00474,-2.23455 1.00474,-0.84398 3.28752,-0.84398 h 1.83265 v -0.14468 q 0,-1.19766 -0.68323,-1.9693 -0.67519,-0.77164 -2.23455,-0.77164 -0.77164,0 -1.57543,0.28936 -0.51443,0.18488 -1.3343,0.74753 v -0.79575 q 0.71538,-0.44209 1.3343,-0.62696 0.90025,-0.26526 1.72815,-0.26526 1.59152,0 2.62037,0.96456 0.89221,0.82791 0.89221,3.11872 z m -3.41612,-8.0299 h 0.68323 l 1.96125,3.02226 h -0.63499 l -1.66386,-2.24258 -1.67189,2.24258 h -0.64303 z"
           style="font-weight:300;font-family:Oswald;-inkscape-font-specification:'Oswald Light'"
           id="path3155" />
        <path
           d="m 306.03199,192.19614 v 5.43365 h -0.73949 v -5.38542 q 0,-1.75227 -0.56266,-2.46765 -0.56265,-0.71537 -1.65581,-0.71537 -1.27804,0 -2.18632,0.77164 -0.91633,0.77968 -0.91633,2.70879 v 5.08801 h -0.73949 v -9.00249 h 0.73949 v 1.68797 q 0.39386,-0.81987 1.03689,-1.25392 0.94848,-0.65108 2.09791,-0.65108 1.3343,0 2.13005,0.90829 0.79576,0.90025 0.79576,2.87758 z"
           style="font-weight:300;font-family:Oswald;-inkscape-font-specification:'Oswald Light'"
           id="path3157" />
        <path
           d="m 315.83023,189.06135 v 0.78772 q -0.66715,-0.40994 -1.10119,-0.55462 -0.74753,-0.2331 -1.43076,-0.2331 -1.94518,0 -2.78916,0.9967 -0.84399,0.99671 -0.84399,3.07853 0,2.09791 0.84399,3.09461 0.84398,0.9967 2.78916,0.9967 0.64304,0 1.27,-0.17683 0.63499,-0.1688 1.26195,-0.51443 v 0.74753 q -0.61892,0.28937 -1.27803,0.43405 -0.66715,0.14468 -1.31822,0.14468 -1.97733,0 -3.14284,-1.06904 -1.1655,-1.07709 -1.1655,-3.65727 0,-2.58018 1.1655,-3.65726 1.16551,-1.06905 3.14284,-1.06905 0.64303,0 1.36645,0.18488 0.72341,0.17683 1.2298,0.4662 z"
           style="font-weight:300;font-family:Oswald;-inkscape-font-specification:'Oswald Light'"
           id="path3159" />
        <path
           d="m 318.69978,188.6273 h 0.73949 v 9.00249 h -0.73949 z m 0,-3.50454 h 0.73949 v 1.01278 h -0.73949 z"
           style="font-weight:300;font-family:Oswald;-inkscape-font-specification:'Oswald Light'"
           id="path3161" />
        <path
           d="m 326.89044,192.54981 q -1.78443,0 -2.57214,0.635 -0.78772,0.635 -0.78772,1.85676 0,1.18962 0.65107,1.68797 0.65107,0.49835 1.54328,0.49835 1.68797,0 2.42746,-1.43075 0.74753,-1.43075 0.74753,-2.69271 v -0.55462 z m 2.75701,-0.0563 v 5.13624 H 328.916 v -2.44353 q -0.61892,1.79246 -1.63974,2.28277 -0.81183,0.39386 -1.61563,0.39386 -1.34233,0 -2.11398,-0.71538 -0.77164,-0.72341 -0.77164,-2.12201 0,-1.3986 1.00474,-2.23455 1.00475,-0.84398 3.28752,-0.84398 h 1.83265 v -0.14468 q 0,-1.19766 -0.68322,-1.9693 -0.67519,-0.77164 -2.23455,-0.77164 -0.77164,0 -1.57544,0.28936 -0.51443,0.18488 -1.3343,0.74753 v -0.79575 q 0.71538,-0.44209 1.3343,-0.62696 0.90025,-0.26526 1.72816,-0.26526 1.59151,0 2.62037,0.96456 0.89221,0.82791 0.89221,3.11872 z"
           style="font-weight:300;font-family:Oswald;-inkscape-font-specification:'Oswald Light'"
           id="path3163" />
        <path
           d="m 343.71384,192.00323 q 0.49836,0.17684 0.96456,0.75557 0.32955,0.41797 0.94043,1.59151 l 1.67993,3.27948 h -0.86006 l -1.71208,-3.29555 q -0.66715,-1.29411 -1.27803,-1.71209 -0.62696,-0.41797 -1.696,-0.41797 h -2.17829 v 5.42561 h -0.80379 v -12.00064 h 3.25537 q 1.84068,0 2.74897,0.86006 0.90829,0.86006 0.90829,2.59625 0,1.11728 -0.47424,1.88088 -0.45012,0.74753 -1.49506,1.03689 z m -4.13954,-5.71497 v 5.24877 h 2.65252 q 1.28607,0 1.94519,-0.66715 0.65911,-0.66714 0.65911,-1.96929 0,-1.29411 -0.65911,-1.95322 -0.65912,-0.65911 -1.94519,-0.65911 z"
           style="font-weight:300;font-family:Oswald;-inkscape-font-specification:'Oswald Light'"
           id="path3165" />
        <path
           d="m 356.32537,192.7588 v 0.4662 h -6.83224 q 0,2.17024 0.84398,3.03834 0.9324,0.96455 2.77309,0.96455 0.48227,0 1.27803,-0.20898 0.80379,-0.20899 1.59151,-0.62696 v 0.77968 q -0.79575,0.33759 -1.6317,0.51443 -0.83594,0.17683 -1.32626,0.17683 -2.08183,0 -3.1348,-1.12531 -1.14138,-1.19765 -1.14138,-3.51258 0,-2.40334 1.04493,-3.58492 1.06905,-1.22981 2.97404,-1.22981 1.76834,0 2.66859,1.16551 0.89221,1.22176 0.89221,3.18302 z m -0.74752,-0.16076 q 0,-1.89695 -0.85203,-2.76505 -0.71537,-0.77164 -1.94518,-0.77164 -1.34233,0 -2.25062,0.80379 -0.83595,0.74753 -1.00474,2.7329 z"
           style="font-weight:300;font-family:Oswald;-inkscape-font-specification:'Oswald Light'"
           id="path3167" />
        <path
           d="m 359.43606,185.12276 h 0.73949 v 12.50703 h -0.73949 z"
           style="font-weight:300;font-family:Oswald;-inkscape-font-specification:'Oswald Light'"
           id="path3169" />
        <path
           d="m 363.99356,188.6273 h 0.73949 v 9.00249 h -0.73949 z m 0,-3.50454 h 0.73949 v 1.01278 h -0.73949 z"
           style="font-weight:300;font-family:Oswald;-inkscape-font-specification:'Oswald Light'"
           id="path3171" />
        <path
           d="m 374.56346,193.02405 q 0,-1.87284 -0.76361,-2.90169 -0.75556,-1.0369 -2.13005,-1.0369 -1.35841,0 -2.12202,1.0369 -0.75556,1.02885 -0.75556,2.90169 0,1.8648 0.75556,2.9017 0.76361,1.02885 2.12202,1.02885 1.37449,0 2.13005,-1.02885 0.76361,-1.0369 0.76361,-2.9017 z m 0.73949,3.48847 q 0,2.80524 -1.06905,3.67334 -1.06904,0.86809 -2.70878,0.86809 -0.77968,0 -1.47095,-0.11253 -0.69126,-0.12057 -1.34233,-0.3617 v -0.84399 q 0.65107,0.35367 1.28607,0.52247 0.635,0.16879 1.29411,0.16879 1.34233,0 2.30689,-0.57069 0.96455,-0.57069 0.96455,-3.07853 v -1.40664 q -0.32956,0.92436 -0.90829,1.45487 -0.88417,0.81183 -1.98537,0.80379 -1.71208,0 -2.6686,-1.20569 -0.95651,-1.21373 -0.95651,-3.40809 0,-2.18632 0.95651,-3.39201 0.95652,-1.21373 2.6686,-1.21373 1.09316,0 1.88088,0.69127 0.61088,0.53854 1.01278,1.43879 v -1.91303 h 0.73949 z"
           style="font-weight:300;font-family:Oswald;-inkscape-font-specification:'Oswald Light'"
           id="path3173" />
        <path
           d="m 378.44579,188.6273 h 0.73949 v 9.00249 h -0.73949 z m 0,-3.50454 h 0.73949 v 1.01278 h -0.73949 z"
           style="font-weight:300;font-family:Oswald;-inkscape-font-specification:'Oswald Light'"
           id="path3175" />
        <path
           d="m 388.38871,190.17058 q -0.79576,-1.10923 -2.17024,-1.10923 -1.37449,0 -2.17025,1.1012 -0.80379,1.09316 -0.80379,2.95796 0,1.91303 0.79575,3.00619 0.79576,1.10119 2.17829,1.10119 1.37448,0 2.17024,-1.10119 0.80379,-1.10924 0.80379,-3.00619 0,-1.84069 -0.80379,-2.94993 z m -2.17828,-1.76031 q 1.72012,0 2.71682,1.28607 1.00474,1.29411 1.00474,3.43221 0,2.21043 -1.00474,3.48846 -0.9967,1.28607 -2.71682,1.28607 -1.7362,0 -2.74094,-1.27803 -0.9967,-1.27803 -0.9967,-3.4965 0,-2.16221 1.00474,-3.44024 1.00474,-1.27804 2.7329,-1.27804 z"
           style="font-weight:300;font-family:Oswald;-inkscape-font-specification:'Oswald Light'"
           id="path3177" />
        <path
           d="m 398.20304,188.89255 v 0.81183 q -0.77968,-0.43405 -0.97259,-0.48227 -0.56265,-0.13665 -1.3986,-0.16076 -1.26999,0 -1.99341,0.50639 -0.55462,0.41797 -0.55462,1.43075 0,0.68323 0.52247,1.06905 0.55462,0.41797 1.58347,0.64303 l 0.50639,0.11253 q 1.27804,0.28133 1.93715,0.79576 0.7636,0.58677 0.80379,1.52721 0,1.27803 -0.75556,2.00144 -0.8038,0.71538 -2.58822,0.71538 -0.99671,0 -1.51113,-0.13664 -0.61892,-0.17684 -1.30215,-0.42601 v -0.92437 q 0.98063,0.56266 1.26999,0.64304 0.79576,0.20898 1.57544,0.20898 1.30215,0 1.92107,-0.53854 0.62696,-0.54658 0.62696,-1.43075 0,-0.73949 -0.41798,-1.07708 -0.60284,-0.48228 -1.92106,-0.78772 l -0.51443,-0.12057 q -1.13335,-0.26525 -1.72816,-0.74753 -0.74753,-0.60285 -0.74753,-1.46291 0,-1.41467 0.90025,-2.03359 0.90025,-0.61893 2.21044,-0.61893 1.11727,0 1.54328,0.12057 0.51443,0.14469 1.00474,0.36171 z"
           style="font-weight:300;font-family:Oswald;-inkscape-font-specification:'Oswald Light'"
           id="path3179" />
        <path
           d="m 405.28446,192.54981 q -1.78442,0 -2.57214,0.635 -0.78772,0.635 -0.78772,1.85676 0,1.18962 0.65108,1.68797 0.65107,0.49835 1.54328,0.49835 1.68797,0 2.42746,-1.43075 0.74753,-1.43075 0.74753,-2.69271 v -0.55462 z m 2.75702,-0.0563 v 5.13624 h -0.73146 v -2.44353 q -0.61892,1.79246 -1.63974,2.28277 -0.81183,0.39386 -1.61562,0.39386 -1.34234,0 -2.11398,-0.71538 -0.77164,-0.72341 -0.77164,-2.12201 0,-1.3986 1.00474,-2.23455 1.00474,-0.84398 3.28752,-0.84398 h 1.83265 v -0.14468 q 0,-1.19766 -0.68323,-1.9693 -0.67518,-0.77164 -2.23454,-0.77164 -0.77165,0 -1.57544,0.28936 -0.51443,0.18488 -1.3343,0.74753 v -0.79575 q 0.71538,-0.44209 1.3343,-0.62696 0.90025,-0.26526 1.72816,-0.26526 1.59151,0 2.62037,0.96456 0.89221,0.82791 0.89221,3.11872 z"
           style="font-weight:300;font-family:Oswald;-inkscape-font-specification:'Oswald Light'"
           id="path3181" />
      </g>
      <g
         id="g4985"
         transform="matrix(0.26002716,0,0,0.26002716,52.966296,98.630325)">
        <rect
           inkscape:export-ydpi="192"
           inkscape:export-xdpi="192"
           inkscape:export-filename="/home/antimonitor/capa.apostila.png"
           y="170.35626"
           x="331.27216"
           height="222.70129"
           width="209.89597"
           id="rect4973"
           style="display:inline;fill:url(#linearGradient5367);fill-opacity:1;stroke:none;stroke-width:0;stroke-miterlimit:4;stroke-dasharray:none"
           rx="39.429024"
           ry="39.429024" />
        <g
           inkscape:export-ydpi="192"
           inkscape:export-xdpi="192"
           inkscape:export-filename="/home/antimonitor/capa.apostila.png"
           style="display:inline;opacity:0.7"
           transform="matrix(1,0,0,1.0029013,331.22013,95.92556)"
           id="g4991">
          <path
             sodipodi:nodetypes="cccccccccccccscccccccscccscccccsccccccscccccccccccccccccsc"
             id="path4975"
             style="opacity:0.4;fill:#ffffff;stroke:none;stroke-width:0.0868059"
             d="m 221.57808,1119.7416 c 0.72027,-6.2263 1.44517,-10.9349 2.17092,-17.1592 18.40281,-157.20557 23.31764,-202.5121 25.40102,-255.72392 0.43409,-11.19806 1.2152,-27.43068 1.73613,-36.11142 1.38888,-21.09377 -0.17367,-29.16665 -6.51049,-35.0694 -3.0382,-2.86477 -4.4271,-5.64254 -5.20831,-10.41676 -1.12849,-7.72566 -3.29868,-12.41325 -10.24309,-21.96185 -21.78828,-30.38222 -21.18069,-29.3404 -24.30571,-38.36822 -10.24311,-29.60095 -16.05905,-65.27807 -15.19102,-94.27128 0.34711,-12.58692 1.04162,-15.5382 4.07989,-17.882 5.55556,-4.25348 24.91331,-12.50003 34.20153,-14.49661 6.68404,-1.4756 7.63891,-1.56238 9.20143,-0.60831 l 1e-4,-6.8e-4 v 0 c 1.04162,0.69441 0.95485,1.47572 -0.60764,5.29512 -1.04162,2.51731 -1.73611,4.86111 -1.47568,5.20834 0.17367,0.34771 3.73262,0.86884 7.89934,1.21572 14.93056,1.12895 41.75365,8.15977 45.05223,11.80558 1.90973,2.17024 1.47574,5.72912 -2.17011,15.01739 -3.12503,8.24662 -3.21185,9.98267 -0.52086,11.02439 1.12849,0.43389 10.85076,1.0422 21.44106,1.30261 22.30903,0.60832 33.76745,1.64927 37.23968,3.47218 3.47229,1.82294 5.55565,8.42011 5.64253,17.79526 0,6.94435 -0.17333,7.72566 -3.38552,13.7153 -8.85423,16.57985 -28.55915,31.51053 -65.36485,49.73972 -10.67709,5.20834 -19.35769,9.89594 -19.35769,10.3299 0,1.21572 5.98961,5.46875 14.40977,10.24301 4.42709,2.51755 8.42017,5.03479 8.94098,5.7292 0.7813,0.86884 -0.26033,2.95155 -4.68748,9.11471 -3.0382,4.34026 -5.98962,8.68051 -6.51044,9.72238 -2.08338,3.90614 -1.21534,4.51389 22.82993,17.36111 7.72573,4.16674 13.6285,7.81247 13.6285,8.50688 0,0.69442 -1.56251,4.68756 -3.55902,8.94104 -4.25349,9.28827 -4.16666,11.02432 0.69441,12.41326 5.0347,1.47571 17.10075,8.33329 23.09037,13.02088 l 5.03478,3.99304 -4.60072,5.20845 c -5.64242,6.4235 -11.9793,11.71884 -20.39945,17.1007 -29.07997,18.40278 -33.42029,21.87519 -27.77791,21.87519 2.86466,0 14.06258,3.90625 18.40289,6.51038 2.08332,1.12884 4.77432,3.3854 6.07639,4.9479 1.90972,2.3438 2.25693,3.38551 1.99655,6.33683 -1.21534,10.06945 -8.42015,14.58338 -25.17369,15.79854 -4.2535,0.26041 -7.63894,0.60831 -7.63894,0.60831 0,0.0896 2.25692,2.60421 5.12157,5.64242 5.72916,6.1632 10.93753,14.40971 12.32639,19.53139 1.99655,7.46525 -1.2152,12.49992 -12.93405,20.48614 -15.79866,10.85083 -15.62505,11.97936 4.34028,24.47928 20.39937,12.76044 26.30221,19.18405 26.30221,28.47231 -0.0872,11.02439 -8.59382,18.92369 -35.59045,32.81259 -5.72918,2.9514 -11.54517,6.2502 -12.84726,7.3787 l -2.51737,1.9096 6.33681,4.3401 c 3.47226,2.4308 9.11463,7.0315 12.50004,10.4168 11.63202,11.6321 14.06256,20.573 8.24657,30.2954 -5.0347,8.3333 -21.75515,19.0041 -35.90452,27.9452 -2.34378,1.4756 -3.90629,5.0064 -3.90629,5.0064 v 0"
             transform="scale(0.26458333)" />
          <path
             id="path4977"
             style="opacity:0.4;fill:#ffffff;stroke:none;stroke-width:0.0868059"
             d="m 522.50181,522.63711 c 3.90629,1.8228 8.07311,4.42704 9.20148,5.81587 4.60071,5.46875 8.42011,20.48621 8.50697,33.85421 0.0896,7.98621 -0.0896,8.68074 -3.12496,14.75701 -6.59739,13.28134 -22.82989,32.03142 -47.56973,54.94821 -6.59717,6.0765 -7.81255,7.72577 -9.89579,13.02089 -8.15977,21.00707 -15.97232,32.11827 -26.47574,37.6738 -10.67724,5.7292 -35.15653,9.28826 -41.23291,5.98953 -5.46867,-2.95143 -14.40971,-14.49649 -16.14588,-20.92021 -0.69441,-2.51736 -0.86883,-8.85419 -0.43385,-20.48622 0.60832,-19.35775 1.56261,-26.90974 4.16682,-34.80907 2.25702,-7.03124 9.80901,-23.17723 11.8055,-25.52103 0.78161,-0.86884 5.81609,-3.7327 11.02439,-6.16316 11.02432,-5.29512 13.10767,-7.2048 19.9654,-18.66331 9.20137,-15.5382 14.58334,-21.09388 28.64587,-29.94792 11.28495,-7.11806 21.70151,-12.06606 26.82315,-12.76059 2.43058,-0.26041 7.37847,-0.43385 11.02432,-0.34772 5.55552,0.17349 7.63876,0.69442 13.7153,3.55907 l -3.4e-4,6.4e-4 v 0"
             transform="scale(0.26458333)" />
          <path
             id="path4979"
             style="opacity:0.4;fill:#ffffff;stroke:none;stroke-width:0.0868059"
             d="m 307.91771,402.23713 c 10.50352,2.51747 17.01397,4.948 19.53139,7.55225 2.95131,2.86454 4.51387,8.50696 3.21168,10.93754 -0.8684,1.73601 -1.38943,1.8229 -5.90278,1.12883 -2.69097,-0.34772 -10.15626,-0.69441 -16.57986,-0.78165 -10.15632,0 -12.50009,0.26041 -17.70844,2.08336 -8.68055,2.95143 -9.20142,3.73251 -9.20142,13.368 0,13.54174 2.77781,33.07313 5.38196,37.93428 0.86819,1.64927 3.29863,5.46875 5.38196,8.42018 5.12158,7.11814 6.25005,12.67371 7.81257,38.45503 0.69441,11.28473 1.73611,21.52797 2.17016,22.91679 1.1285,2.86454 1.2152,8.94093 0.17322,9.54868 -2.17016,1.38939 -8.59377,-7.72589 -11.80562,-16.92726 -0.6944,-1.99646 -1.73611,-7.98622 -2.17011,-13.36808 -1.56251,-17.53481 -3.8195,-24.39239 -15.7119,-46.26746 -10.67712,-19.87862 -16.84033,-30.12185 -19.18411,-32.03142 -1.04162,-0.95497 -1.47569,-0.78165 -2.25695,1.04217 -0.60763,1.21572 -1.38887,4.68755 -1.90973,7.72565 -0.60762,3.90629 -1.7361,6.94458 -3.81945,9.98268 -1.90971,2.77776 -3.21179,5.98964 -3.55906,8.59385 -0.347,2.25695 -0.69441,4.60074 -0.86796,5.12149 -0.26034,0.86887 -3.12502,1.12894 -10.41676,1.12894 h -9.98268 v 3.29866 c 0,8.2464 6.16323,24.30561 13.45492,35.32993 2.95141,4.34037 5.81605,9.72234 6.42365,11.97925 1.1285,3.81951 1.04163,4.1667 -0.95484,6.59728 -1.21521,1.3895 -2.43054,4.1667 -2.77777,6.0765 -0.86808,5.64234 -2.69102,5.55545 -7.81255,-0.17349 l -4.4271,-4.94793 -10.4167,3.12499 c -13.80212,3.99296 -16.49311,4.60071 -17.88201,3.73263 -0.95485,-0.60832 -1.30205,-7.20492 -1.47573,-34.20163 l -0.26033,-33.50702 5.12152,-6.24998 c 7.81257,-9.63549 37.58694,-48.17726 41.40646,-53.55927 4.51387,-6.42361 9.98266,-12.15281 12.58681,-13.19452 9.37507,-3.73262 39.93072,-4.25348 54.42731,-0.86887 l 2.5e-4,-3.8e-4 v 0"
             transform="scale(0.26458333)" />
          <path
             id="path4981"
             style="opacity:0.4;fill:#ffffff;stroke:none;stroke-width:0.0868059"
             d="m 397.67509,353.27858 c 14.7569,3.81952 17.27425,5.4689 17.27425,11.45851 v 3.81941 h -25.08691 -25.17361 l -5.7293,7.11813 c -9.37494,11.63193 -9.11462,10.32988 -5.72909,27.86466 8.24642,42.88206 11.11108,61.89256 13.54164,89.58376 2.95143,33.07313 3.47229,36.37164 7.46523,44.79175 3.38552,7.20491 3.73273,9.46189 1.3895,9.46189 -1.64937,0 -19.01063,-10.15619 -19.87859,-11.54524 -0.34775,-0.69445 -1.47572,-8.24644 -2.43067,-16.84041 -5.55554,-50.26065 -7.11792,-65.45166 -8.68052,-85.33013 -2.17013,-26.389 -2.34368,-28.12501 -4.42703,-30.64248 -0.78153,-1.12894 -4.94807,-3.55907 -9.20156,-5.38197 -9.11453,-3.99307 -12.41321,-6.16331 -12.41321,-7.98622 0,-1.9096 14.9306,-26.73616 19.70498,-32.81259 1.9965,-2.51731 4.5139,-4.77433 5.64241,-5.03474 1.12884,-0.17348 11.8056,-0.43389 23.78475,-0.52112 20.48625,-0.0896 22.30915,0.0896 29.94818,1.99649 l -4.5e-4,3e-4 v 0"
             transform="scale(0.26458333)" />
          <path
             id="path4983"
             style="opacity:0.4;fill:#ffffff;stroke:none;stroke-width:0.0868059"
             d="m 513.4741,353.36816 c 32.3785,11.97918 72.39599,27.60425 78.55926,30.64235 5.46879,2.6911 6.51039,3.55906 6.51039,5.2953 0,1.5625 -0.95494,2.77777 -3.90614,4.51393 -4.77438,2.95132 -7.72577,3.0381 -13.88897,0.69441 -4.42715,-1.73605 -5.81609,-1.8229 -18.22935,-1.3025 -18.14241,0.69442 -17.882,0.95498 -17.62144,-10.06956 l 0.0896,-8.33339 -6.59717,-2.69102 c -3.64596,-1.38935 -9.02793,-3.21173 -11.8924,-3.99292 -2.86454,-0.78164 -10.50353,-3.29862 -17.10081,-5.72931 -6.5105,-2.3438 -12.41318,-4.25348 -13.19452,-4.25348 -1.82283,0 -2.69091,1.8229 -4.86104,10.41664 -2.25694,8.76752 -1.99665,14.1494 1.30265,25.52101 4.51378,15.45154 10.41676,23.52431 23.43754,32.20494 7.9861,5.38201 12.93399,7.72566 27.51749,13.10767 11.45839,4.25348 18.22919,7.46536 21.70148,10.3299 1.3025,1.12894 7.11802,4.42722 13.02077,7.37854 11.28495,5.7292 13.7153,7.37847 13.7153,9.20138 0,0.60831 -2.60409,2.95143 -5.81586,5.20845 -8.07299,5.64246 -11.54517,9.02778 -11.54517,11.19791 0,1.04217 3.29855,6.8578 7.37847,12.93422 4.07981,5.98938 7.37847,11.54506 7.37847,12.23959 0,1.8229 -3.0381,2.43042 -9.80905,1.64923 -10.1563,-1.12894 -11.11116,-0.52108 -8.42018,5.38201 2.25702,4.861 3.212,17.18759 2.17024,26.73619 -0.69441,6.77091 -1.64938,7.20503 -7.46543,3.03817 -5.29512,-3.81936 -22.04875,-20.92017 -27.4306,-28.12497 -5.64235,-7.46536 -6.33676,-10.59035 -6.33676,-26.73631 0.0896,-13.54174 0.52112,-15.71187 7.29158,-30.81615 4.25348,-9.37504 4.07996,-10.50345 -2.51732,-12.76048 -6.24998,-2.17012 -25.78133,-12.32643 -32.46538,-16.92702 -7.72562,-5.29524 -17.70834,-16.23289 -22.56945,-24.73973 -2.6911,-4.60079 -5.03482,-14.32305 -5.81613,-23.35087 l -0.60828,-7.37845 5.4689,-8.94107 c 3.03806,-4.9479 7.03121,-11.02428 8.85415,-13.54175 4.16659,-5.55553 2.86454,-5.72909 23.69798,1.99661 l -0.003,5.3e-4 v 0"
             transform="scale(0.26458333)" />
          <path
             id="path4985"
             style="opacity:0.4;fill:#ffffff;stroke:none;stroke-width:0.0868059"
             d="m 465.73081,324.72228 c 15.79876,1.64928 20.57299,3.0381 23.52442,6.94439 1.9965,2.6911 2.17013,3.29862 1.30262,5.90272 -1.04217,3.1251 -7.63888,13.54186 -10.67721,16.84041 -1.12883,1.21583 -3.64573,2.25702 -6.68405,2.86465 -15.62499,3.12499 -28.21176,8.07289 -28.99306,11.45828 -2.17013,8.50708 -7.46536,92.18803 -7.55214,117.70883 0,7.98622 0,8.073 3.38544,12.58693 7.03124,9.37492 7.63887,13.36818 1.99657,12.32636 -4.86112,-0.86888 -13.80219,-5.29512 -14.84383,-7.20492 -1.30262,-2.51735 -1.21584,-11.8055 0.43389,-30.12151 1.04217,-10.93765 1.56238,-30.81626 1.99646,-66.4066 l 0.52108,-50.78145 -4.51389,-4.25352 c -5.55556,-5.12141 -6.1632,-6.68402 -3.81951,-9.98267 3.29873,-4.60067 20.48621,-16.49319 26.30207,-18.2292 3.90641,-1.12887 3.90641,-1.12887 17.62171,0.34772 l -5.7e-4,-4.2e-4 v 0"
             transform="scale(0.26458333)" />
          <path
             id="path4987"
             style="opacity:0.4;fill:#ffffff;stroke:none;stroke-width:0.0868059"
             d="m 537.43249,311.35409 c 3.0381,1.04217 8.68063,3.12507 12.49992,4.68745 3.81963,1.56261 11.89247,4.42726 17.88212,6.5105 5.98975,1.99646 12.06614,4.51393 13.45485,5.64242 l 2.51747,1.9965 -1.73617,1.99646 c -2.60409,2.86477 -9.20137,6.85769 -11.37161,6.85769 -1.04217,0 -4.42715,-1.12895 -7.46514,-2.6041 -6.59735,-3.1251 -12.15292,-3.29866 -32.20516,-1.04217 l -12.93411,1.47569 -3.81925,-4.77434 c -2.0835,-2.6041 -3.81963,-5.55565 -3.81963,-6.51051 0,-2.69087 16.31951,-16.05906 19.61828,-16.05906 0.95494,0 4.25348,0.78161 7.37843,1.82291 v 5.6e-4 0"
             transform="scale(0.26458333)" />
          <path
             sodipodi:nodetypes="cccccccccccccccccccscscccccccccccccscccccccccccccccccccc"
             id="path4989"
             style="opacity:0.4;fill:#ffffff;stroke:none;stroke-width:0.0868059"
             d="m 518.14699,1119.8222 c -0.24872,-3.2233 -0.50096,-11.2607 -0.76674,-14.7158 -5.7292,-76.6495 -11.02417,-165.71254 -13.02089,-220.92108 -0.43385,-13.62841 -1.04217,-28.64598 -1.30262,-33.33331 -0.43385,-9.72238 1.64928,-59.28847 3.03821,-71.26783 0.52109,-4.51382 1.64939,-9.28804 2.69099,-11.28473 3.99307,-7.72569 17.01407,-24.47905 37.58706,-48.61126 15.45135,-17.96867 22.74312,-28.90632 27.17016,-40.45149 3.55906,-9.28827 3.99307,-10.59031 11.45839,-34.20163 5.46867,-17.27425 7.81247,-21.87496 19.27087,-38.19447 16.92725,-24.04527 25.52088,-37.23972 30.03481,-46.4412 l 4.514,-9.11475 0.95497,-24.3055 c 0.52109,-13.36808 1.56261,-29.77448 2.25702,-36.45853 1.04217,-10.67709 3.64573,-37.06613 5.20834,-54.34058 l 0.60832,-5.72923 -7.20492,-12.49999 c -3.99318,-6.85762 -8.15977,-14.23605 -9.37493,-16.3194 -4.34048,-7.81259 -13.97586,-16.31966 -22.9169,-20.48636 -5.12144,-2.34369 -5.90275,-3.29849 -5.90275,-7.031 0,-1.5626 -1.12894,-5.64253 -2.60424,-9.11474 -1.38936,-3.55907 -2.6041,-7.29166 -2.6041,-8.42019 0,-1.21572 1.73616,-3.64584 4.86112,-6.68406 4.6007,-4.42711 4.86115,-4.94789 4.42703,-8.07295 -1.12894,-9.02786 -9.0277,-17.88201 -20.92021,-23.52435 -8.42018,-4.07993 -31.85772,-13.36819 -42.36117,-16.84048 -10.41676,-3.47218 -11.63207,-3.55884 -18.22935,-0.69442 l -1.8e-4,9.1e-4 c -3.12499,1.30262 -12.76048,5.90283 -21.35434,10.06953 l -15.5382,7.55214 -15.97232,-2.25702 c -27.17016,-3.73262 -25.43414,-3.73262 -32.46539,0 -3.29862,1.73616 -14.23615,8.07288 -24.21883,14.06253 l -18.05567,10.85084 -10.5902,-1.21584 c -5.72931,-0.69441 -18.92376,-1.21572 -29.16687,-1.21572 h -18.66323 l -4.68756,2.60424 c -7.46531,4.07993 -14.06253,12.67366 -25.78132,32.98625 -3.21185,5.64239 -6.94447,11.45837 -8.15977,12.84731 l -2.25694,2.51731 -4.25348,-1.47571 c -3.38546,-1.12895 -7.55212,-1.47572 -18.66331,-1.47572 -16.3195,-0.0896 -22.39587,1.12898 -27.25702,5.38201 -6.25004,5.55553 -37.41335,46.09391 -54.34054,70.74675 l -10.76391,15.62513 -0.60764,9.5486 c -1.56252,22.30915 -3.6458,42.44814 -5.64235,54.25376 -3.12502,18.31612 -4.51393,59.11468 -3.12502,93.31631 1.64933,40.97234 5.38196,65.62529 12.41326,82.55244 1.6493,3.90618 8.50692,14.75705 18.9237,29.7744 l 16.40632,23.69809 0.52075,8.76741 c 0.86797,15.5382 1.82293,55.29528 1.6493,68.31617 -0.43409,30.81611 -3.90629,54.94817 -22.74315,159.02841 -8.63413,47.4008 -15.39216,80.3918 -20.88091,112.1988"
             transform="scale(0.26458333)" />
        </g>
      </g>
    </g>
  </g>
</svg>
