<?xml version="1.0" encoding="UTF-8" standalone="no"?>
<!-- Created with Inkscape (http://www.inkscape.org/) -->

<svg
   width="11.313163mm"
   height="7.9704938mm"
   viewBox="0 0 11.313163 7.9704938"
   version="1.1"
   id="svg1478"
   inkscape:version="1.2.2 (b0a8486541, 2022-12-01)"
   sodipodi:docname="marca_cciao.svg"
   xmlns:inkscape="http://www.inkscape.org/namespaces/inkscape"
   xmlns:sodipodi="http://sodipodi.sourceforge.net/DTD/sodipodi-0.dtd"
   xmlns="http://www.w3.org/2000/svg"
   xmlns:svg="http://www.w3.org/2000/svg">
  <sodipodi:namedview
     id="namedview1480"
     pagecolor="#ffffff"
     bordercolor="#000000"
     borderopacity="0.25"
     inkscape:showpageshadow="2"
     inkscape:pageopacity="0.0"
     inkscape:pagecheckerboard="0"
     inkscape:deskcolor="#d1d1d1"
     inkscape:document-units="mm"
     showgrid="false"
     inkscape:zoom="3.1072952"
     inkscape:cx="90.271437"
     inkscape:cy="42.8025"
     inkscape:window-width="2560"
     inkscape:window-height="1412"
     inkscape:window-x="0"
     inkscape:window-y="0"
     inkscape:window-maximized="1"
     inkscape:current-layer="layer1" />
  <defs
     id="defs1475" />
  <g
     inkscape:label="Camada 1"
     inkscape:groupmode="layer"
     id="layer1"
     transform="translate(-92.305816,-97.615717)">
    <g
       style="fill:#000000"
       id="g2798"
       transform="matrix(0.00930026,0,0,-0.00930026,-46.768597,173.58292)" />
    <g
       transform="matrix(0.00133483,0,0,-0.00133483,82.729864,106.34146)"
       id="g3522"
       style="fill:#000000" />
    <g
       style="fill:#000000"
       id="g3528"
       transform="matrix(0.00133483,0,0,-0.00133483,91.995224,107.7718)" />
    <g
       transform="matrix(0.00133483,0,0,-0.00133483,94.966514,107.7718)"
       id="g3534"
       style="fill:#000000" />
    <g
       style="fill:#000000"
       id="g3540"
       transform="matrix(0.00297534,0,0,-0.00297534,55.989569,118.0647)" />
    <g
       id="g2048"
       transform="translate(0,2.8280462)">
      <g
         transform="matrix(0.00818652,0,0,-0.00818652,-30.464169,159.70846)"
         id="g550">
        <path
           inkscape:connector-curvature="0"
           id="path548"
           style="fill:#bfb2ae;fill-opacity:1;fill-rule:nonzero;stroke:none"
           d="m 15926.5,7663.83 157.6,41.38 c 14.1,4.02 29,4.02 43.1,0 l 153.8,-41.38 c 9.5,-2.74 19,4.43 19,14.38 v 35.01 c 0,14.01 -9.3,26.34 -22.8,30.19 l -130.3,37.25 c -28.2,8.06 -58.1,8.06 -86.3,0 l -130.4,-37.25 c -13.5,-3.85 -22.8,-16.18 -22.8,-30.19 v -35.01 c 0,-9.95 9.5,-17.12 19.1,-14.38" />
      </g>
      <path
         d="m 92.563501,95.687678 h 0.127956 c 0.142341,0 0.257426,-0.115236 0.257426,-0.257199 v -0.385685 c 0,-0.141962 -0.115085,-0.257123 -0.257426,-0.257123 h -0.127956 c -0.142342,0 -0.257426,0.115161 -0.257426,0.257123 v 0.385685 c 0,0.141963 0.115084,0.257199 0.257426,0.257199"
         style="fill:#00accf;fill-opacity:1;fill-rule:nonzero;stroke:none;stroke-width:0.00757136"
         id="path552"
         inkscape:connector-curvature="0" />
      <g
         transform="matrix(0.00822596,0,0,-0.00822596,-30.464169,159.70846)"
         id="g556">
        <path
           inkscape:connector-curvature="0"
           id="path554"
           style="fill:#00accf;fill-opacity:1;fill-rule:nonzero;stroke:none"
           d="m 15596.7,7344.45 c 0,-16.84 -13.6,-30.51 -30.5,-30.51 h -173.4 c -16.8,0 -30.5,13.67 -30.5,30.51 v 95.27 c 0,16.84 13.7,30.51 30.5,30.51 h 173.4 c 16.9,0 30.5,-13.67 30.5,-30.51 z m 390.8,-61.75 c 0,17.26 13.9,31.24 31.2,31.24 h 15.6 c 17.3,0 31.3,-13.98 31.3,-31.24 v -93.78 c 0,-17.28 -14,-31.26 -31.3,-31.26 h -15.6 c -17.3,0 -31.2,14.01 -31.2,31.26 z m 234.4,265.66 v 0 h -390.7 v 0 c -43.2,0 -78.2,-34.98 -78.2,-78.13 v 0 -203.19 c 0,-17.25 14,-31.23 31.3,-31.23 h 15.6 c 17.3,0 31.3,13.98 31.3,31.23 v 171.94 c 0,17.25 14,31.25 31.2,31.25 h 328.2 c 17.3,0 31.3,-14 31.3,-31.25 v -406.36 c 0,-17.25 -14,-31.23 -31.3,-31.23 h -171.9 c -17.3,0 -31.2,13.98 -31.2,31.23 v 15.66 c 0,17.26 13.9,31.23 31.2,31.23 h 46.9 v 0 c 43.1,0 78.1,34.98 78.1,78.15 v 0 156.28 0.02 c 0,43.14 -35,78.12 -78.1,78.12 v 0 h -78.1 -0.1 c -43.1,0 -78.1,-34.98 -78.1,-78.12 v -0.02 -125.02 c 0,-17.28 -14,-31.26 -31.3,-31.26 h -46.8 -78.2 -47.2 c -17,0 -30.9,13.87 -30.9,30.99 v 47.16 78.13 156.29 78.13 15.63 62.52 0.74 c 0,42.76 -34.7,77.38 -77.4,77.38 h -0.8 -62.5 -265.6 -62.6 -0.7 c -42.8,0 -77.4,-34.62 -77.4,-77.38 v -0.74 -125.79 c 0,-16.84 -13.7,-30.49 -30.5,-30.49 h -16.4 v 0 h -15.6 -31.3 v 0 h -0.7 c -16.9,0 -30.5,13.65 -30.5,30.49 v 172.68 c 0,17.25 -14,31.26 -31.3,31.26 h -15.6 c -17.3,0 -31.3,-14.01 -31.3,-31.26 v -203.17 -0.77 c 0,-42.72 34.7,-77.38 77.4,-77.38 h 0.8 v 0 h 62.5 15.6 v 0 h 46.9 0.8 c 42.7,0 77.3,34.66 77.3,77.38 v 0.77 125.76 c 0,16.84 13.7,30.52 30.5,30.52 h 32.1 265.6 32 c 16.9,0 30.5,-13.68 30.5,-30.52 v -32 -0.75 c 0,-8.21 -6.6,-14.88 -14.8,-14.88 h -219.6 -0.7 c -42.8,0 -77.4,-34.65 -77.4,-77.38 v -0.75 -156.29 -0.75 c 0,-42.75 34.6,-77.38 77.4,-77.38 h 0.7 203.9 c 16.9,0 30.5,-13.67 30.5,-30.51 v -47.64 -0.74 c 0,-42.76 34.7,-77.41 77.4,-77.41 h 0.8 78.1 78.2 63.2 c 8.2,0 14.9,-6.64 14.9,-14.85 v -63.27 -0.03 c 0,-43.14 35,-78.12 78.1,-78.12 h 0.1 234.4 v 0 c 43.1,0 78.1,34.98 78.1,78.12 v 0.03 468.84 c 0,43.15 -35,78.13 -78.1,78.13" />
      </g>
    </g>
  </g>
</svg>
