<?xml version="1.0" encoding="UTF-8" standalone="no"?>
<!-- Created with Inkscape (http://www.inkscape.org/) -->

<svg
   width="31.75mm"
   height="31.75mm"
   viewBox="0 0 31.75 31.75"
   version="1.1"
   id="svg2467"
   inkscape:version="1.2.2 (b0a8486541, 2022-12-01)"
   sodipodi:docname="missao.svg"
   xmlns:inkscape="http://www.inkscape.org/namespaces/inkscape"
   xmlns:sodipodi="http://sodipodi.sourceforge.net/DTD/sodipodi-0.dtd"
   xmlns="http://www.w3.org/2000/svg"
   xmlns:svg="http://www.w3.org/2000/svg">
  <sodipodi:namedview
     id="namedview2469"
     pagecolor="#ffffff"
     bordercolor="#000000"
     borderopacity="0.25"
     inkscape:showpageshadow="2"
     inkscape:pageopacity="0.0"
     inkscape:pagecheckerboard="0"
     inkscape:deskcolor="#d1d1d1"
     inkscape:document-units="mm"
     showgrid="false"
     inkscape:zoom="2.1971895"
     inkscape:cx="102.17599"
     inkscape:cy="128.80091"
     inkscape:window-width="2560"
     inkscape:window-height="1412"
     inkscape:window-x="0"
     inkscape:window-y="0"
     inkscape:window-maximized="1"
     inkscape:current-layer="layer1" />
  <defs
     id="defs2464" />
  <g
     inkscape:label="Camada 1"
     inkscape:groupmode="layer"
     id="layer1"
     transform="translate(-71.701378,-109.95592)">
    <g
       id="g3020"
       transform="translate(-33.888856,-3.2862105)">
      <path
         style="fill:#000000;stroke-width:0.0302875"
         d="m 111.13641,134.38586 c -0.18858,-0.0869 -0.28972,-0.28692 -0.24284,-0.48035 0.0142,-0.0583 0.90961,-0.97416 2.88822,-2.95414 l 2.86778,-2.86975 -0.77182,-0.77227 -0.77184,-0.77228 -1.81752,1.81432 c -1.40835,1.40587 -1.83875,1.81871 -1.91171,1.8338 -0.12529,0.026 -0.32872,-0.0573 -0.40621,-0.16607 -0.0742,-0.1042 -0.10407,-0.24181 -0.0769,-0.35386 0.027,-0.11105 3.92445,-4.02359 4.07169,-4.08746 0.0684,-0.0297 0.14364,-0.0376 0.22717,-0.024 0.11441,0.0187 0.2056,0.10079 1.08698,0.97821 l 0.96212,0.95777 1.90764,-1.90744 1.90762,-1.90745 1.1e-4,-3.57401 c 1.2e-4,-3.48914 0.002,-3.57633 0.0592,-3.67082 0.0825,-0.13529 0.19622,-0.20125 0.34445,-0.19977 0.17307,0.002 3.99073,1.75182 4.11509,1.88644 0.15413,0.16684 0.13629,0.45208 -0.0363,0.57976 -0.0417,0.0308 -0.87983,0.37317 -1.86267,0.76082 l -1.78695,0.70481 -0.008,1.7563 -0.008,1.75629 1.90782,1.90753 1.90782,1.90754 0.9621,-0.95777 c 0.88141,-0.87742 0.97259,-0.95949 1.08701,-0.97821 0.0835,-0.0137 0.15875,-0.005 0.22716,0.024 0.14724,0.0639 4.04472,3.97641 4.0717,4.08746 0.0273,0.11205 -0.003,0.24966 -0.0769,0.35386 -0.0775,0.10884 -0.2809,0.192 -0.40621,0.16607 -0.073,-0.0151 -0.50334,-0.42793 -1.91169,-1.8338 l -1.81754,-1.81432 -0.77183,0.77228 -0.77182,0.77227 2.86777,2.86975 c 1.97862,1.97998 2.87413,2.8959 2.88822,2.95414 0.0709,0.29261 -0.21484,0.58505 -0.49587,0.50745 -0.0899,-0.0249 -0.54731,-0.46727 -2.45071,-2.37056 l -2.34021,-2.34005 -0.95427,0.47685 c -0.52487,0.26227 -0.96619,0.47685 -0.98073,0.47685 -0.0145,0 -0.38994,-0.27258 -0.83424,-0.60574 -0.44432,-0.33316 -0.81425,-0.60575 -0.82208,-0.60575 -0.008,0 -0.36586,0.2641 -0.79561,0.58688 -0.42975,0.3228 -0.80994,0.60475 -0.84488,0.62658 -0.0586,0.0365 -0.12854,-0.009 -0.89877,-0.5869 -0.45937,-0.3446 -0.84225,-0.62656 -0.85085,-0.62656 -0.009,0 -0.36647,0.2633 -0.7953,0.58511 -0.42882,0.32183 -0.7989,0.59656 -0.82239,0.61054 -0.0289,0.0172 -0.35353,-0.12978 -1.00713,-0.45607 l -0.96444,-0.48146 -2.35525,2.35451 c -1.29537,1.29499 -2.37547,2.35471 -2.40021,2.35494 -0.0248,1.7e-4 -0.0722,0.007 -0.10553,0.0153 -0.0333,0.009 -0.11567,-0.0105 -0.18301,-0.0415 z m 8.60935,-5.9511 c 0.0225,-0.0136 0.35923,0.21986 0.87333,0.60553 0.77154,0.5788 0.84159,0.62455 0.9002,0.58795 0.0349,-0.0218 0.41584,-0.30431 0.84645,-0.62775 0.48357,-0.36322 0.79702,-0.57957 0.81979,-0.56584 0.0203,0.0122 0.41227,0.30387 0.87108,0.64807 l 0.83423,0.62585 0.60444,-0.30198 c 0.33246,-0.16609 0.61061,-0.30776 0.61814,-0.31481 0.008,-0.007 -1.03508,-1.06185 -2.31693,-2.34399 l -2.33062,-2.33118 -2.32456,2.32468 c -1.2785,1.27857 -2.32461,2.33164 -2.32463,2.34017 -4e-5,0.009 0.27542,0.15303 0.61212,0.32115 l 0.61221,0.30565 0.83403,-0.62569 c 0.45871,-0.34412 0.85053,-0.63564 0.87072,-0.64781 z m 3.29232,-9.6089 c 0.61778,-0.24314 1.13311,-0.45133 1.14517,-0.46261 0.0194,-0.0182 -2.15356,-1.0341 -2.26441,-1.05864 -0.0381,-0.009 -0.0443,0.12756 -0.0443,0.97677 0,0.5426 0.009,0.98656 0.0201,0.98656 0.0112,0 0.52557,-0.19893 1.14336,-0.44208 z"
         id="path16745" />
      <g
         aria-label="Missão"
         id="text16767"
         style="font-weight:300;font-size:4.93889px;font-family:Roboto;-inkscape-font-specification:'Roboto Light';stroke-width:0.859012;paint-order:markers fill stroke">
        <path
           d="m 114.29323,138.44451 1.29502,3.09886 1.29983,-3.09886 h 0.3955 v 3.51124 h -0.29662 v -1.52893 l 0.0241,-1.56752 -1.30707,3.09645 h -0.2291 l -1.30224,-3.0844 0.0241,1.54582 v 1.53858 h -0.29662 v -3.51124 z"
           style="stroke-width:0.859014"
           id="path3410" />
        <path
           d="m 118.42907,141.95575 h -0.28939 v -2.60932 h 0.28939 z m -0.34003,-3.36414 q 0,-0.082 0.0531,-0.13746 0.053,-0.0579 0.14469,-0.0579 0.0916,0 0.14469,0.0579 0.0555,0.0555 0.0555,0.13746 0,0.082 -0.0555,0.13746 -0.053,0.0555 -0.14469,0.0555 -0.0916,0 -0.14469,-0.0555 -0.0531,-0.0555 -0.0531,-0.13746 z"
           style="stroke-width:0.859014"
           id="path3412" />
        <path
           d="m 120.77553,141.29257 q 0,-0.21463 -0.17364,-0.34486 -0.17122,-0.13022 -0.51848,-0.20257 -0.34727,-0.0748 -0.54019,-0.16881 -0.19052,-0.0965 -0.28457,-0.23392 -0.0916,-0.13746 -0.0916,-0.3328 0,-0.30868 0.25804,-0.50884 0.25804,-0.20257 0.66077,-0.20257 0.43649,0 0.69935,0.21704 0.26528,0.21463 0.26528,0.5619 h -0.28939 q 0,-0.2291 -0.19293,-0.38103 -0.19051,-0.15193 -0.48231,-0.15193 -0.28457,0 -0.4582,0.12782 -0.17122,0.1254 -0.17122,0.32797 0,0.19534 0.14228,0.30386 0.1447,0.1061 0.52331,0.19533 0.38103,0.0892 0.56913,0.19052 0.19052,0.10128 0.28216,0.24356 0.0916,0.14229 0.0916,0.34486 0,0.33038 -0.26769,0.52813 -0.26527,0.19775 -0.69453,0.19775 -0.45579,0 -0.74035,-0.21945 -0.28215,-0.22187 -0.28215,-0.55949 h 0.28938 q 0.0169,0.25322 0.21222,0.3955 0.19775,0.13987 0.5209,0.13987 0.30145,0 0.48714,-0.13263 0.18569,-0.13264 0.18569,-0.33521 z"
           style="stroke-width:0.859014"
           id="path3414" />
        <path
           d="m 123.27632,141.29257 q 0,-0.21463 -0.17363,-0.34486 -0.17122,-0.13022 -0.51849,-0.20257 -0.34726,-0.0748 -0.54019,-0.16881 -0.19051,-0.0965 -0.28456,-0.23392 -0.0916,-0.13746 -0.0916,-0.3328 0,-0.30868 0.25804,-0.50884 0.25803,-0.20257 0.66076,-0.20257 0.4365,0 0.69936,0.21704 0.26527,0.21463 0.26527,0.5619 h -0.28939 q 0,-0.2291 -0.19292,-0.38103 -0.19052,-0.15193 -0.48232,-0.15193 -0.28456,0 -0.45819,0.12782 -0.17122,0.1254 -0.17122,0.32797 0,0.19534 0.14228,0.30386 0.14469,0.1061 0.52331,0.19533 0.38103,0.0892 0.56913,0.19052 0.19051,0.10128 0.28215,0.24356 0.0916,0.14229 0.0916,0.34486 0,0.33038 -0.26768,0.52813 -0.26528,0.19775 -0.69453,0.19775 -0.45579,0 -0.74036,-0.21945 -0.28215,-0.22187 -0.28215,-0.55949 h 0.28939 q 0.0169,0.25322 0.21222,0.3955 0.19775,0.13987 0.5209,0.13987 0.30144,0 0.48713,-0.13263 0.18569,-0.13264 0.18569,-0.33521 z"
           style="stroke-width:0.859014"
           id="path3416" />
        <path
           d="m 125.86152,141.95575 q -0.0434,-0.12299 -0.0555,-0.36415 -0.15193,0.19775 -0.38826,0.30627 -0.23393,0.10611 -0.49679,0.10611 -0.3762,0 -0.61012,-0.20981 -0.23151,-0.2098 -0.23151,-0.53054 0,-0.38103 0.31591,-0.60289 0.31833,-0.22187 0.88505,-0.22187 h 0.52331 v -0.29662 q 0,-0.27974 -0.17364,-0.4389 -0.17122,-0.16158 -0.5016,-0.16158 -0.30145,0 -0.4992,0.15434 -0.19775,0.15434 -0.19775,0.37138 l -0.28938,-0.002 q 0,-0.31109 0.28938,-0.53778 0.28939,-0.2291 0.71142,-0.2291 0.43649,0 0.68729,0.21945 0.25322,0.21705 0.26045,0.60772 v 1.23472 q 0,0.37862 0.0796,0.56672 v 0.0289 z m -0.90675,-0.2074 q 0.28939,0 0.51608,-0.13987 0.2291,-0.13987 0.3328,-0.37379 v -0.57395 h -0.51608 q -0.43167,0.005 -0.67524,0.15916 -0.24357,0.15193 -0.24357,0.41961 0,0.21946 0.16158,0.36415 0.16399,0.14469 0.42443,0.14469 z m 1.10209,-3.39548 q 0,0.23151 -0.13746,0.37379 -0.13505,0.13987 -0.33279,0.13987 -0.18328,0 -0.35933,-0.13263 -0.17363,-0.13264 -0.31109,-0.13264 -0.11334,0 -0.19051,0.0748 -0.0748,0.0748 -0.0748,0.2098 l -0.21704,-0.007 q 0,-0.22186 0.13022,-0.36656 0.13264,-0.14469 0.34003,-0.14469 0.11576,0 0.19775,0.041 0.082,0.041 0.15434,0.0916 0.0724,0.0507 0.14469,0.0916 0.0748,0.041 0.17364,0.041 0.11093,0 0.1881,-0.0796 0.0796,-0.0796 0.0796,-0.21463 z"
           style="stroke-width:0.859014"
           id="path3418" />
        <path
           d="m 126.70075,140.61251 q 0,-0.37621 0.14469,-0.67765 0.14711,-0.30145 0.41238,-0.46785 0.26768,-0.16881 0.6053,-0.16881 0.5209,0 0.84405,0.36656 0.32315,0.36415 0.32315,0.96704 v 0.0603 q 0,0.37861 -0.1471,0.68247 -0.1447,0.30145 -0.40997,0.46543 -0.26527,0.16399 -0.6053,0.16399 -0.51849,0 -0.84405,-0.36415 -0.32315,-0.36655 -0.32315,-0.96945 z m 0.28939,0.0796 q 0,0.46784 0.24115,0.76929 0.24357,0.29903 0.63666,0.29903 0.39067,0 0.63183,-0.29903 0.24357,-0.30145 0.24357,-0.79341 v -0.0555 q 0,-0.29904 -0.11094,-0.54743 -0.11093,-0.24839 -0.31109,-0.38344 -0.20016,-0.13746 -0.4582,-0.13746 -0.38585,0 -0.62942,0.30386 -0.24356,0.30145 -0.24356,0.79099 z"
           style="stroke-width:0.859014"
           id="path3420" />
      </g>
    </g>
  </g>
</svg>
