<?xml version="1.0" encoding="UTF-8" standalone="no"?>
<!-- Created with Inkscape (http://www.inkscape.org/) -->

<svg
   width="120"
   height="120"
   viewBox="0 0 31.75 31.75"
   version="1.1"
   id="svg2467"
   inkscape:version="1.2.2 (b0a8486541, 2022-12-01)"
   sodipodi:docname="valor.svg"
   xmlns:inkscape="http://www.inkscape.org/namespaces/inkscape"
   xmlns:sodipodi="http://sodipodi.sourceforge.net/DTD/sodipodi-0.dtd"
   xmlns="http://www.w3.org/2000/svg"
   xmlns:svg="http://www.w3.org/2000/svg">
  <sodipodi:namedview
     id="namedview2469"
     pagecolor="#ffffff"
     bordercolor="#000000"
     borderopacity="0.25"
     inkscape:showpageshadow="2"
     inkscape:pageopacity="0.0"
     inkscape:pagecheckerboard="0"
     inkscape:deskcolor="#d1d1d1"
     inkscape:document-units="mm"
     showgrid="false"
     inkscape:zoom="2.1971895"
     inkscape:cx="45.285125"
     inkscape:cy="121.974"
     inkscape:window-width="1280"
     inkscape:window-height="1412"
     inkscape:window-x="1280"
     inkscape:window-y="0"
     inkscape:window-maximized="0"
     inkscape:current-layer="layer1" />
  <defs
     id="defs2464" />
  <g
     inkscape:label="Camada 1"
     inkscape:groupmode="layer"
     id="layer1"
     transform="translate(-136.03661,-130.57238)">
    <g
       id="g3188"
       transform="translate(5.2916635,2.988145)">
      <path
         style="fill:#000000;stroke-width:0.0521089"
         d="m 146.38064,148.62069 c -0.0342,-0.0139 -0.24522,-0.2508 -0.46897,-0.52643 -0.62602,-0.77108 -0.67173,-0.82715 -4.91429,-6.02836 -5.43199,-6.65941 -4.95053,-6.04904 -4.94942,-6.27458 0,-0.16633 0.21882,-0.49371 1.72278,-2.58744 0.94703,-1.31835 1.78036,-2.44977 1.85185,-2.51425 l 0.12999,-0.11725 h 6.87257 6.87259 l 0.12909,0.11725 c 0.071,0.0645 0.44004,0.55105 0.8201,1.08126 0.38005,0.53021 1.00405,1.39782 1.38665,1.92803 1.32284,1.83317 1.3697,1.90519 1.3697,2.10473 0,0.14168 -0.0563,0.2534 -0.24478,0.48566 -0.59703,0.73578 -2.64262,3.24673 -3.28101,4.02745 -0.17576,0.21494 -0.92076,1.12946 -1.65555,2.03225 -0.73478,0.90279 -1.47146,1.80558 -1.63704,2.0062 -0.16559,0.20061 -0.97602,1.1972 -1.80095,2.21463 -0.82494,1.01743 -1.55754,1.90262 -1.62803,1.96711 -0.12185,0.11149 -0.40559,0.15278 -0.57528,0.0837 z m 0.26932,-2.48075 c 0.10344,-0.31295 0.88312,-2.31349 1.67039,-4.28597 0.90137,-2.25833 1.24022,-3.09495 1.8572,-4.58559 0.33487,-0.80906 0.37266,-0.91239 0.34411,-0.94095 -0.0131,-0.0131 -1.78279,-0.0177 -3.93277,-0.0103 l -3.90905,0.0133 1.11506,2.83994 c 0.61327,1.56196 1.21073,3.08615 1.3277,3.38708 0.11695,0.30093 0.27424,0.70406 0.34954,0.89584 0.0753,0.1918 0.34793,0.88917 0.60587,1.54974 0.25794,0.66055 0.48731,1.20125 0.5097,1.20154 0.0224,1.9e-4 0.0504,-0.0288 0.0623,-0.0646 z m 3.65427,-3.26178 c 1.31539,-1.61484 2.56749,-3.1529 2.78244,-3.41789 1.46418,-1.80507 2.42467,-2.98652 2.49152,-3.06471 0.0741,-0.0866 -0.0226,-0.0912 -1.92907,-0.0912 h -2.00704 l -0.10804,0.27358 c -0.0595,0.15047 -0.22875,0.56668 -0.3763,0.92493 -1.12761,2.73796 -3.33407,8.27267 -3.33407,8.36322 0,0.0625 -0.21833,0.3254 2.48056,-2.98793 z m -5.053,2.71288 c -0.014,-0.0225 -0.18142,-0.43869 -0.37231,-0.92494 -0.19089,-0.48625 -0.44832,-1.14203 -0.57206,-1.45729 -0.12374,-0.31526 -0.35427,-0.90149 -0.51229,-1.30273 -0.15802,-0.40123 -0.39682,-1.01091 -0.53064,-1.35483 -0.13385,-0.34392 -0.35494,-0.9067 -0.49133,-1.25062 -0.1364,-0.34392 -0.45678,-1.15753 -0.71198,-1.80804 -0.28827,-0.73483 -0.49357,-1.18884 -0.54214,-1.19889 -0.043,-0.009 -0.94035,-0.004 -1.99411,0.0102 l -1.91595,0.0265 0.51093,0.62531 c 1.43019,1.7504 3.0775,3.77032 3.19186,3.9139 0.071,0.0891 0.50114,0.61672 0.95585,1.17244 0.45471,0.55573 1.29887,1.59049 1.87592,2.29947 0.57703,0.70899 1.06815,1.28934 1.09132,1.28969 0.0232,4e-4 0.0308,-0.0178 0.0169,-0.0402 z m -3.61634,-10.34079 c 0.0479,-0.0364 0.54494,-0.81179 1.10443,-1.72303 0.55947,-0.91125 1.05297,-1.70787 1.0967,-1.77027 0.0437,-0.0624 0.0795,-0.1317 0.0795,-0.15399 0,-0.0223 -0.83836,-0.0405 -1.86306,-0.0405 h -1.86306 l -0.88569,1.23406 c -0.48711,0.67875 -1.07914,1.50014 -1.31558,1.82533 -0.23646,0.3252 -0.42992,0.61298 -0.42992,0.63953 0,0.0803 3.97061,0.0695 4.07672,-0.0111 z m 8.74211,0.0164 c 0,-0.0262 -0.46029,-0.79416 -1.02289,-1.70657 -0.5626,-0.91242 -1.06905,-1.73515 -1.1255,-1.82829 l -0.10259,-0.16936 h -1.50231 -1.50232 l -1.12403,1.82979 c -0.61822,1.00639 -1.12406,1.85056 -1.12406,1.87593 0,0.0263 1.60979,0.0461 3.75185,0.0461 2.23129,0 3.75185,-0.0193 3.75185,-0.0476 z m 5.31512,-0.006 c 0,-0.0296 -0.12498,-0.22303 -0.27774,-0.42991 -0.25949,-0.35143 -0.87438,-1.20492 -1.91342,-2.65591 l -0.43846,-0.61228 h -1.86384 c -1.0251,0 -1.86383,0.0108 -1.86383,0.024 0,0.0131 0.15546,0.27699 0.34546,0.58622 0.85011,1.38349 1.35379,2.20639 1.57206,2.56844 0.12959,0.21495 0.27067,0.43185 0.31351,0.48201 0.0718,0.084 0.23871,0.0912 2.10209,0.0912 1.35605,0 2.02417,-0.0178 2.02417,-0.0537 z"
         id="path16763"
         sodipodi:nodetypes="ssscsscccsssssssssssssssscsssscsssssscscssssssssssccsssscssssssscsssssssscccssssssscsssssss" />
      <g
         aria-label="Valores"
         id="text16767-2-0"
         style="font-weight:300;font-size:4.93889px;font-family:Roboto;-inkscape-font-specification:'Roboto Light';stroke-width:0.859012;paint-order:markers fill stroke">
        <path
           d="m 140.16056,155.86374 0.0193,0.0748 0.0217,-0.0748 1.1045,-3.07716 h 0.32556 l -1.30707,3.51124 h -0.28456 l -1.30707,-3.51124 h 0.32315 z"
           style="stroke-width:0.859014"
           id="path3566" />
        <path
           d="m 143.61634,156.29782 q -0.0434,-0.12299 -0.0555,-0.36415 -0.15193,0.19775 -0.38826,0.30627 -0.23392,0.10611 -0.49678,0.10611 -0.37621,0 -0.61013,-0.2098 -0.23151,-0.20981 -0.23151,-0.53055 0,-0.38103 0.31592,-0.60289 0.31832,-0.22186 0.88504,-0.22186 h 0.52331 v -0.29663 q 0,-0.27974 -0.17363,-0.4389 -0.17122,-0.16158 -0.50161,-0.16158 -0.30144,0 -0.49919,0.15434 -0.19775,0.15434 -0.19775,0.37138 l -0.28939,-0.002 q 0,-0.31109 0.28939,-0.53778 0.28939,-0.2291 0.71141,-0.2291 0.4365,0 0.6873,0.21946 0.25321,0.21704 0.26045,0.60771 v 1.23472 q 0,0.37862 0.0796,0.56672 v 0.0289 z m -0.90675,-0.20739 q 0.28939,0 0.51608,-0.13987 0.22909,-0.13988 0.33279,-0.3738 v -0.57395 h -0.51607 q -0.43167,0.005 -0.67524,0.15916 -0.24357,0.15193 -0.24357,0.41962 0,0.21945 0.16157,0.36414 0.16399,0.1447 0.42444,0.1447 z"
           style="stroke-width:0.859014"
           id="path3568" />
        <path
           d="m 144.93788,156.29782 h -0.28939 v -3.70417 h 0.28939 z"
           style="stroke-width:0.859014"
           id="path3570" />
        <path
           d="m 145.56247,154.95458 q 0,-0.37621 0.1447,-0.67765 0.1471,-0.30145 0.41238,-0.46785 0.26768,-0.16881 0.6053,-0.16881 0.5209,0 0.84405,0.36656 0.32315,0.36415 0.32315,0.96704 v 0.0603 q 0,0.37862 -0.14711,0.68247 -0.14469,0.30145 -0.40996,0.46544 -0.26528,0.16398 -0.60531,0.16398 -0.51848,0 -0.84405,-0.36414 -0.32315,-0.36656 -0.32315,-0.96945 z m 0.28939,0.0796 q 0,0.46784 0.24116,0.76929 0.24357,0.29903 0.63665,0.29903 0.39068,0 0.63183,-0.29903 0.24357,-0.30145 0.24357,-0.79341 v -0.0555 q 0,-0.29904 -0.11093,-0.54743 -0.11093,-0.24839 -0.31109,-0.38344 -0.20016,-0.13746 -0.4582,-0.13746 -0.38585,0 -0.62942,0.30386 -0.24357,0.30145 -0.24357,0.791 z"
           style="stroke-width:0.859014"
           id="path3572" />
        <path
           d="m 149.69349,153.93449 q -0.0916,-0.0169 -0.19534,-0.0169 -0.27009,0 -0.45819,0.15193 -0.1857,0.14952 -0.26528,0.4365 v 1.79179 h -0.28697 v -2.60931 h 0.28215 l 0.005,0.41478 q 0.2291,-0.46302 0.73553,-0.46302 0.12058,0 0.19051,0.0314 z"
           style="stroke-width:0.859014"
           id="path3574" />
        <path
           d="m 151.1139,156.34605 q -0.33279,0 -0.60289,-0.16398 -0.26768,-0.16399 -0.4172,-0.45579 -0.14952,-0.29421 -0.14952,-0.65836 v -0.1037 q 0,-0.3762 0.1447,-0.67765 0.1471,-0.30144 0.40755,-0.47266 0.26045,-0.17364 0.56431,-0.17364 0.47508,0 0.75241,0.32557 0.27974,0.32315 0.27974,0.88504 v 0.16158 h -1.86173 v 0.0555 q 0,0.44373 0.25321,0.74035 0.25563,0.29421 0.64148,0.29421 0.23151,0 0.40756,-0.0844 0.17845,-0.0844 0.32315,-0.2701 l 0.18086,0.13746 q -0.31832,0.46061 -0.92363,0.46061 z m -0.0531,-2.4598 q -0.32556,0 -0.54984,0.23875 -0.22186,0.23874 -0.2701,0.64148 h 1.56511 v -0.0314 q -0.0121,-0.37621 -0.21463,-0.61254 -0.20257,-0.23634 -0.53054,-0.23634 z"
           style="stroke-width:0.859014"
           id="path3576" />
        <path
           d="m 154.21759,155.63464 q 0,-0.21463 -0.17363,-0.34485 -0.17122,-0.13023 -0.51849,-0.20258 -0.34727,-0.0747 -0.54019,-0.16881 -0.19051,-0.0965 -0.28457,-0.23392 -0.0916,-0.13746 -0.0916,-0.33279 0,-0.30868 0.25803,-0.50884 0.25804,-0.20258 0.66077,-0.20258 0.4365,0 0.69936,0.21704 0.26527,0.21463 0.26527,0.5619 h -0.28939 q 0,-0.2291 -0.19292,-0.38103 -0.19052,-0.15193 -0.48232,-0.15193 -0.28456,0 -0.4582,0.12782 -0.17122,0.1254 -0.17122,0.32797 0,0.19534 0.14229,0.30386 0.14469,0.10611 0.52331,0.19533 0.38102,0.0892 0.56913,0.19052 0.19051,0.10128 0.28215,0.24357 0.0916,0.14228 0.0916,0.34485 0,0.33039 -0.26769,0.52813 -0.26527,0.19775 -0.69453,0.19775 -0.45578,0 -0.74035,-0.21945 -0.28215,-0.22186 -0.28215,-0.55948 h 0.28939 q 0.0169,0.25321 0.21221,0.39549 0.19775,0.13987 0.5209,0.13987 0.30145,0 0.48714,-0.13263 0.18569,-0.13264 0.18569,-0.33521 z"
           style="stroke-width:0.859014"
           id="path3578" />
      </g>
    </g>
  </g>
</svg>
