<?xml version="1.0" encoding="UTF-8" standalone="no"?>
<!-- Created with Inkscape (http://www.inkscape.org/) -->

<svg
   width="120"
   height="120"
   viewBox="0 0 31.75 31.75"
   version="1.1"
   id="svg2467"
   inkscape:version="1.2.2 (b0a8486541, 2022-12-01)"
   sodipodi:docname="visao.svg"
   xmlns:inkscape="http://www.inkscape.org/namespaces/inkscape"
   xmlns:sodipodi="http://sodipodi.sourceforge.net/DTD/sodipodi-0.dtd"
   xmlns="http://www.w3.org/2000/svg"
   xmlns:svg="http://www.w3.org/2000/svg">
  <sodipodi:namedview
     id="namedview2469"
     pagecolor="#ffffff"
     bordercolor="#000000"
     borderopacity="0.25"
     inkscape:showpageshadow="2"
     inkscape:pageopacity="0.0"
     inkscape:pagecheckerboard="0"
     inkscape:deskcolor="#d1d1d1"
     inkscape:document-units="mm"
     showgrid="false"
     inkscape:zoom="2.1971895"
     inkscape:cx="-30.721064"
     inkscape:cy="88.749741"
     inkscape:window-width="1280"
     inkscape:window-height="1412"
     inkscape:window-x="1280"
     inkscape:window-y="0"
     inkscape:window-maximized="0"
     inkscape:current-layer="layer1" />
  <defs
     id="defs2464" />
  <g
     inkscape:label="Camada 1"
     inkscape:groupmode="layer"
     id="layer1"
     transform="translate(-149.34472,-166.27917)">
    <g
       id="g3339"
       transform="translate(5.2916651,4.9571551)">
      <path
         style="fill:#000000;stroke-width:0.0439279"
         d="m 159.48466,176.59334 c -1.51168,-0.0888 -2.85399,-0.40618 -4.37083,-1.03356 -0.34547,-0.1429 -1.54552,-0.75219 -1.93283,-0.98136 -1.19623,-0.70779 -2.3812,-1.59883 -3.41389,-2.56709 -0.60514,-0.56738 -0.58974,-0.65748 0.23967,-1.40303 2.241,-2.01439 4.76588,-3.41959 7.25952,-4.0402 0.91863,-0.22862 1.47686,-0.28882 2.67961,-0.28893 1.1954,-1.3e-4 1.66509,0.05 2.63567,0.28106 2.47735,0.58981 5.46895,2.28536 7.47306,4.23549 0.42947,0.4179 0.45673,0.45491 0.45675,0.62013 1e-5,0.1656 -0.0273,0.20233 -0.47417,0.63812 -2.18194,2.1277 -5.44442,3.89418 -8.0267,4.34606 -0.86834,0.15196 -1.89374,0.23043 -2.52586,0.19331 z m 1.55597,-1.0037 c 1.54258,-0.40374 2.7965,-1.7244 3.11882,-3.28483 0.0883,-0.42738 0.0913,-1.32971 0.006,-1.7317 -0.26837,-1.26122 -1.01774,-2.27892 -2.15466,-2.92615 -0.66365,-0.37781 -1.64465,-0.60024 -2.36865,-0.53709 -0.71815,0.0626 -1.46354,0.31528 -2.06452,0.69971 -0.61785,0.39524 -1.30009,1.20556 -1.60404,1.9052 -0.26914,0.61953 -0.32593,0.92037 -0.32524,1.72304 4.8e-4,0.66041 0.0112,0.75993 0.11961,1.12016 0.50262,1.66999 1.75211,2.79376 3.47316,3.1237 0.4674,0.0896 1.26077,0.049 1.79978,-0.092 z m -1.75974,-1.73137 c -0.42766,-0.1224 -0.7319,-0.29334 -1.05522,-0.59287 -0.53514,-0.49576 -0.80562,-1.12435 -0.80562,-1.87222 0,-0.32218 0.0731,-0.74607 0.12862,-0.74607 0.0184,0 0.0711,0.0423 0.11716,0.0941 0.046,0.0517 0.18252,0.14051 0.30332,0.19725 0.54105,0.25413 1.20855,0.0104 1.47414,-0.53821 0.18887,-0.39015 0.10108,-0.96333 -0.19251,-1.25692 l -0.11413,-0.11413 0.14106,-0.0502 c 0.0776,-0.0276 0.30909,-0.061 0.51445,-0.0743 0.44682,-0.0288 0.82484,0.0484 1.26222,0.25776 0.40559,0.1941 0.94965,0.73585 1.13811,1.13326 0.47535,1.00238 0.29028,2.13978 -0.4729,2.90638 -0.3214,0.32282 -0.83361,0.60411 -1.25969,0.69176 -0.33729,0.0694 -0.86832,0.0534 -1.17901,-0.0356 z m -3.12008,1.0828 c -0.21044,-0.22363 -0.60244,-0.77351 -0.77569,-1.0881 -0.20933,-0.3801 -0.4943,-1.24908 -0.55988,-1.70731 -0.072,-0.50326 -0.0286,-1.46505 0.0855,-1.8939 0.2426,-0.91177 0.67022,-1.72307 1.21241,-2.30023 0.0877,-0.0933 0.15282,-0.17634 0.14471,-0.18445 -0.0314,-0.0314 -0.92342,0.34999 -1.5933,0.68127 -1.32778,0.65663 -2.54337,1.4615 -3.75584,2.48683 -0.58591,0.49547 -0.56897,0.46253 -0.34371,0.66852 1.14972,1.05141 2.88199,2.22717 4.22635,2.8686 0.46244,0.22064 1.38004,0.6057 1.45224,0.6094 0.0229,9.8e-4 -0.0189,-0.0621 -0.0928,-0.14063 z m 8.00482,-0.0709 c 1.0073,-0.41028 1.90616,-0.89599 2.98447,-1.61267 0.94487,-0.62801 2.30621,-1.71371 2.30621,-1.83926 0,-0.0584 -0.71813,-0.674 -1.34533,-1.15324 -0.78959,-0.60332 -1.7897,-1.24301 -2.6424,-1.69014 -0.4521,-0.23707 -1.8187,-0.83374 -1.84631,-0.80613 -0.009,0.009 0.0959,0.14857 0.23302,0.31022 0.58956,0.69497 1.0067,1.58204 1.16851,2.4849 0.0812,0.45325 0.0691,1.42734 -0.023,1.85503 -0.1948,0.90407 -0.61803,1.75726 -1.18351,2.38584 -0.18046,0.2006 -0.23383,0.27908 -0.18978,0.27908 0.007,0 0.24964,-0.0961 0.53811,-0.21363 z"
         id="path16761"
         sodipodi:nodetypes="sssssscsssssssssssssccssssssssssscsssssssssssssssssssssssssssssss" />
      <g
         aria-label="Visão"
         id="text16767-2"
         style="font-weight:300;font-size:4.93889px;font-family:Roboto;-inkscape-font-specification:'Roboto Light';stroke-width:0.859012;paint-order:markers fill stroke">
        <path
           d="m 155.47029,187.63254 0.0193,0.0748 0.0217,-0.0748 1.1045,-3.07716 h 0.32556 l -1.30707,3.51124 h -0.28456 l -1.30707,-3.51124 h 0.32315 z"
           style="stroke-width:0.859014"
           id="path3787" />
        <path
           d="m 157.71304,188.06662 h -0.28938 v -2.60932 h 0.28938 z m -0.34003,-3.36414 q 0,-0.082 0.0531,-0.13746 0.053,-0.0579 0.14469,-0.0579 0.0916,0 0.1447,0.0579 0.0555,0.0555 0.0555,0.13746 0,0.082 -0.0555,0.13746 -0.0531,0.0555 -0.1447,0.0555 -0.0916,0 -0.14469,-0.0555 -0.0531,-0.0555 -0.0531,-0.13746 z"
           style="stroke-width:0.859014"
           id="path3789" />
        <path
           d="m 160.0595,187.40344 q 0,-0.21463 -0.17363,-0.34486 -0.17122,-0.13022 -0.51849,-0.20257 -0.34727,-0.0748 -0.54019,-0.16881 -0.19052,-0.0965 -0.28457,-0.23392 -0.0916,-0.13746 -0.0916,-0.33279 0,-0.30869 0.25804,-0.50885 0.25804,-0.20257 0.66077,-0.20257 0.43649,0 0.69936,0.21704 0.26527,0.21463 0.26527,0.5619 h -0.28939 q 0,-0.2291 -0.19293,-0.38103 -0.19051,-0.15193 -0.48231,-0.15193 -0.28456,0 -0.4582,0.12782 -0.17122,0.1254 -0.17122,0.32797 0,0.19534 0.14228,0.30386 0.1447,0.10611 0.52331,0.19533 0.38103,0.0892 0.56913,0.19052 0.19052,0.10128 0.28216,0.24357 0.0916,0.14228 0.0916,0.34485 0,0.33038 -0.26769,0.52813 -0.26527,0.19775 -0.69453,0.19775 -0.45578,0 -0.74035,-0.21945 -0.28215,-0.22187 -0.28215,-0.55949 h 0.28939 q 0.0169,0.25322 0.21221,0.3955 0.19775,0.13987 0.5209,0.13987 0.30145,0 0.48714,-0.13263 0.18569,-0.13264 0.18569,-0.33521 z"
           style="stroke-width:0.859014"
           id="path3791" />
        <path
           d="m 162.6447,188.06662 q -0.0434,-0.12299 -0.0555,-0.36415 -0.15193,0.19775 -0.38826,0.30627 -0.23392,0.10611 -0.49678,0.10611 -0.37621,0 -0.61013,-0.20981 -0.23151,-0.2098 -0.23151,-0.53054 0,-0.38103 0.31592,-0.60289 0.31832,-0.22187 0.88504,-0.22187 h 0.52331 v -0.29662 q 0,-0.27974 -0.17363,-0.4389 -0.17122,-0.16158 -0.50161,-0.16158 -0.30144,0 -0.49919,0.15434 -0.19775,0.15434 -0.19775,0.37138 l -0.28939,-0.002 q 0,-0.31109 0.28939,-0.53778 0.28939,-0.2291 0.71141,-0.2291 0.4365,0 0.6873,0.21946 0.25321,0.21704 0.26045,0.60771 v 1.23472 q 0,0.37862 0.0796,0.56672 v 0.0289 z m -0.90675,-0.20739 q 0.28939,0 0.51608,-0.13988 0.22909,-0.13987 0.33279,-0.37379 v -0.57395 h -0.51607 q -0.43167,0.005 -0.67524,0.15916 -0.24357,0.15193 -0.24357,0.41961 0,0.21946 0.16157,0.36415 0.16399,0.1447 0.42444,0.1447 z m 1.10209,-3.39549 q 0,0.23151 -0.13746,0.37379 -0.13505,0.13987 -0.3328,0.13987 -0.18328,0 -0.35932,-0.13263 -0.17364,-0.13264 -0.31109,-0.13264 -0.11335,0 -0.19052,0.0748 -0.0748,0.0748 -0.0748,0.2098 l -0.21704,-0.007 q 0,-0.22186 0.13023,-0.36656 0.13263,-0.14469 0.34003,-0.14469 0.11575,0 0.19775,0.041 0.082,0.041 0.15434,0.0916 0.0723,0.0506 0.14469,0.0916 0.0748,0.041 0.17363,0.041 0.11094,0 0.18811,-0.0796 0.0796,-0.0796 0.0796,-0.21463 z"
           style="stroke-width:0.859014"
           id="path3793" />
        <path
           d="m 163.48392,186.72338 q 0,-0.37621 0.1447,-0.67765 0.1471,-0.30145 0.41238,-0.46785 0.26768,-0.16881 0.6053,-0.16881 0.5209,0 0.84405,0.36656 0.32315,0.36415 0.32315,0.96704 v 0.0603 q 0,0.37861 -0.14711,0.68247 -0.14469,0.30145 -0.40996,0.46543 -0.26528,0.16399 -0.60531,0.16399 -0.51848,0 -0.84405,-0.36415 -0.32315,-0.36655 -0.32315,-0.96945 z m 0.28939,0.0796 q 0,0.46784 0.24116,0.76929 0.24357,0.29903 0.63665,0.29903 0.39068,0 0.63183,-0.29903 0.24357,-0.30145 0.24357,-0.79341 v -0.0555 q 0,-0.29904 -0.11093,-0.54743 -0.11093,-0.24839 -0.31109,-0.38344 -0.20016,-0.13746 -0.4582,-0.13746 -0.38585,0 -0.62942,0.30386 -0.24357,0.30145 -0.24357,0.79099 z"
           style="stroke-width:0.859014"
           id="path3795" />
      </g>
    </g>
  </g>
</svg>
